<svg width="864" height="69" viewBox="0 0 864 69" fill="none" xmlns="http://www.w3.org/2000/svg">
<rect x="369" y="4" width="64" height="64" stroke="#1864AB" stroke-opacity="0.5"/>
<path d="M400.932 66.9622L378.82 60.824L373.843 5H428.089L423.106 60.8147L400.932 66.9622Z" stroke="#1864AB" stroke-opacity="0.5" stroke-width="2"/>
<path fill-rule="evenodd" clip-rule="evenodd" d="M415.425 51.7632L415.531 50.5696L417.191 31.9706L417.363 30.0735H391.618L390.972 22.8392H400.954H417.983L418.148 21.2512L418.47 17.6698L418.639 15.7744H400.954H383.251L383.42 17.6698L385.157 37.1381H400.966H409.641L408.821 46.3005L400.965 48.421L393.067 46.305L392.564 40.6706H388.741H385.472L386.462 51.7632L400.933 55.7806L415.425 51.7632Z" fill="#1864AB" fill-opacity="0.5"/>
<path fill-rule="evenodd" clip-rule="evenodd" d="M462 4L467.136 61.602L490.183 68L513.293 61.5926L518.434 4H462ZM508.915 57.9685L490.265 63.0994L490.265 55.7678L490.208 55.7811L475.712 51.7674L474.723 40.6823H481.815L482.33 46.309L490.21 48.4253L490.265 48.4171V37.0141L474.374 37.014L473.756 29.9598V29.9598L490.265 22.894L490.265 22.406H473.128L472.502 15.3517H490.193H490.265L490.265 8.79706H513.285L508.915 57.9685Z" fill="#1864AB" fill-opacity="0.5"/>
<path fill-rule="evenodd" clip-rule="evenodd" d="M491.403 22.4058L490.265 22.8939V29.9595H490.265V37.0138H498.892L498.108 46.2367L490.265 48.423V55.7731L504.713 51.7594L506.615 29.9595H490.265L507.256 22.4058L507.863 15.3516H490.265V22.3174V22.4058H491.403Z" fill="#1864AB" fill-opacity="0.5"/>
<g clip-path="url(#clip0_0_1)">
<path fill-rule="evenodd" clip-rule="evenodd" d="M191.75 12.75C191.75 8.33172 195.332 4.75 199.75 4.75H246.25C250.668 4.75 254.25 8.33172 254.25 12.75V59.25C254.25 63.6683 250.668 67.25 246.25 67.25H199.75C195.332 67.25 191.75 63.6683 191.75 59.25V12.75ZM208.184 56.9795C208.184 56.9795 208.184 56.9795 208.184 56.9795L208.184 56.9795C209.568 59.9159 212.295 62.3491 216.994 62.3491C222.196 62.3491 225.762 59.5802 225.762 53.4968V36.3803C225.762 34.7584 224.447 33.4436 222.825 33.4436C221.203 33.4436 219.889 34.7584 219.889 36.3803V53.4138C219.889 56.3503 218.672 57.1053 216.742 57.1053C213.935 57.1053 210.98 55.2873 208.579 56.7405L208.184 56.9795L208.184 56.9795C208.184 56.9794 208.184 56.9794 208.184 56.9795ZM235.506 55.7441C234.318 54.731 232.657 54.2054 231.306 54.9877C229.985 55.7523 229.462 57.4524 230.471 58.5968C232.441 60.8303 235.482 62.3496 239.65 62.3496C245.23 62.3496 249.384 59.4551 249.384 54.1686C249.384 49.2601 246.573 47.0788 241.58 44.939L240.112 44.3097C237.595 43.2188 236.504 42.5055 236.504 40.7434C236.504 39.3172 237.595 38.2264 239.315 38.2264C240.031 38.2264 240.641 38.3564 241.182 38.6457C242.557 39.3802 244.198 40.0319 245.51 39.1898C246.718 38.4141 247.148 36.7845 246.165 35.7382C244.406 33.8663 242.166 33.1077 239.315 33.1077C234.07 33.1077 230.714 36.4642 230.714 40.8693C230.714 45.6522 233.525 47.9177 237.763 49.7213L239.231 50.3511C241.916 51.5254 243.51 52.2387 243.51 54.2525C243.51 55.9307 241.958 57.1474 239.525 57.1474C237.801 57.1474 236.523 56.6117 235.506 55.7441Z" fill="#1864AB" fill-opacity="0.5"/>
</g>
<rect x="191" y="4" width="64" height="64" rx="8" stroke="#1864AB" stroke-opacity="0.5"/>
<g clip-path="url(#clip1_0_1)">
<path fill-rule="evenodd" clip-rule="evenodd" d="M21.4167 5C15.5287 5 10.75 9.77867 10.75 15.6667C10.75 21.5547 15.5287 26.3333 21.4167 26.3333C15.5287 26.3333 10.75 31.112 10.75 37C10.75 42.888 15.5287 47.6667 21.4167 47.6667C15.5287 47.6667 10.75 52.4453 10.75 58.3333C10.75 64.2213 15.5287 69 21.4167 69C27.3047 69 32.0833 64.2213 32.0833 58.3333L32.0833 37C32.0833 42.888 36.862 47.6667 42.75 47.6667C48.638 47.6667 53.4167 42.888 53.4167 37C53.4167 31.112 48.638 26.3333 42.75 26.3333C48.638 26.3333 53.4167 21.5547 53.4167 15.6667C53.4167 9.77867 48.638 5 42.75 5H21.4167ZM42.75 26.3333H32.0833L32.0833 37C32.0833 31.112 36.862 26.3333 42.75 26.3333Z" fill="#1864AB" fill-opacity="0.5"/>
</g>
<path d="M576.904 5.01722C576.767 5.02973 576.329 5.07352 575.935 5.1048C566.844 5.92423 558.33 10.8283 552.937 18.3658C549.934 22.5568 548.013 27.3107 547.288 32.3461C547.031 34.1039 547 34.623 547 37.0063C547 39.3895 547.031 39.9087 547.288 41.6664C549.027 53.6826 557.579 63.7785 569.178 67.5191C571.255 68.1884 573.445 68.645 575.935 68.9202C576.904 69.0266 581.096 69.0266 582.065 68.9202C586.363 68.4449 590.004 67.3815 593.596 65.5487C594.146 65.2672 594.252 65.1922 594.177 65.1296C594.127 65.0921 591.781 61.9457 588.966 58.1426L583.848 51.2306L577.436 41.7414C573.908 36.5246 571.005 32.2586 570.98 32.2586C570.955 32.2523 570.93 36.4683 570.917 41.6163C570.898 50.6301 570.892 50.9929 570.779 51.2055C570.617 51.5121 570.492 51.6372 570.229 51.7748C570.029 51.8749 569.854 51.8936 568.909 51.8936H567.827L567.539 51.7122C567.351 51.5934 567.213 51.437 567.12 51.2556L566.988 50.9741L567.001 38.4324L567.02 25.8845L567.213 25.6406C567.314 25.5092 567.526 25.3403 567.676 25.259C567.933 25.1339 568.033 25.1214 569.115 25.1214C570.392 25.1214 570.604 25.1714 570.936 25.5342C571.03 25.6343 574.502 30.8637 578.656 37.1626C582.81 43.4616 588.491 52.0625 591.281 56.2848L596.348 63.9599L596.605 63.791C598.876 62.3148 601.278 60.213 603.18 58.0237C607.228 53.3761 609.836 47.7089 610.712 41.6664C610.969 39.9087 611 39.3895 611 37.0063C611 34.623 610.969 34.1039 610.712 32.3461C608.973 20.3299 600.421 10.2341 588.822 6.49345C586.776 5.8304 584.599 5.37377 582.159 5.09854C581.559 5.03599 577.423 4.96718 576.904 5.01722ZM590.004 24.3708C590.305 24.5209 590.549 24.8086 590.636 25.1089C590.686 25.2715 590.699 28.7494 590.686 36.5872L590.668 47.834L588.684 44.794L586.695 41.754V33.5784C586.695 28.2928 586.72 25.3216 586.758 25.1777C586.858 24.8274 587.077 24.5522 587.377 24.3895C587.633 24.2582 587.727 24.2457 588.709 24.2457C589.635 24.2457 589.798 24.2582 590.004 24.3708Z" fill="#1864AB" fill-opacity="0.5"/>
<path fill-rule="evenodd" clip-rule="evenodd" d="M862.794 29.1489L834.85 1.20714C833.242 -0.402379 830.632 -0.402379 829.022 1.20714L823.219 7.00968L830.58 14.3705C832.291 13.7925 834.252 14.1802 835.616 15.5439C836.986 16.9161 837.37 18.8943 836.779 20.6105L843.872 27.7045C845.589 27.1132 847.569 27.4959 848.94 28.8688C850.855 30.7837 850.855 33.8876 848.94 35.804C847.023 37.7204 843.92 37.7204 842.002 35.804C840.561 34.3616 840.205 32.2451 840.935 30.4698L834.319 23.8541L834.319 41.2638C834.786 41.4956 835.227 41.8039 835.616 42.1915C837.531 44.1065 837.531 47.2103 835.616 49.1281C833.699 51.0438 830.594 51.0438 828.68 49.1281C826.765 47.2103 826.765 44.1065 828.68 42.1915C829.154 41.7189 829.701 41.3615 830.286 41.1213V23.5493C829.701 23.3106 829.154 22.9553 828.68 22.4791C827.229 21.0297 826.88 18.8999 827.624 17.1176L820.368 9.86074L801.208 29.0197C799.597 30.6306 799.597 33.2408 801.208 34.8504L829.152 62.7929C830.76 64.4024 833.37 64.4024 834.981 62.7929L862.794 34.9803C864.404 33.3701 864.404 30.7585 862.794 29.1489Z" fill="#1864AB" fill-opacity="0.5"/>
<path d="M311 16.75C302.467 16.75 297.133 21.0167 295 29.55C298.2 25.2833 301.933 23.6833 306.2 24.75C308.634 25.3586 310.374 27.1246 312.3 29.0796C315.438 32.2642 319.069 35.95 327 35.95C335.533 35.95 340.867 31.6833 343 23.15C339.8 27.4167 336.067 29.0167 331.8 27.95C329.366 27.3414 327.626 25.5754 325.7 23.6204C322.562 20.4358 318.931 16.75 311 16.75ZM295 35.95C286.467 35.95 281.133 40.2167 279 48.75C282.2 44.4833 285.933 42.8833 290.2 43.95C292.634 44.5586 294.374 46.3246 296.3 48.2796C299.438 51.4642 303.069 55.15 311 55.15C319.533 55.15 324.867 50.8833 327 42.35C323.8 46.6167 320.067 48.2167 315.8 47.15C313.366 46.5414 311.626 44.7754 309.7 42.8204C306.562 39.6358 302.931 35.95 295 35.95Z" fill="#1864AB" fill-opacity="0.5"/>
<path d="M147.2 8.5H160L128 63.7L96 8.5H108.64H120.48L128 21.3L135.36 8.5H147.2Z" fill="#1864AB" fill-opacity="0.2"/>
<path d="M96 8.5L128 63.7L160 8.5H147.2L128 41.62L108.64 8.5H96Z" fill="#1864AB" fill-opacity="0.2"/>
<path d="M108.64 8.5L128 41.78L147.2 8.5H135.36L128 21.3L120.48 8.5H108.64Z" fill="#1864AB" fill-opacity="0.5"/>
<path d="M694.452 54.7413C696.758 53.766 699.507 53.411 703.054 53.4995C702.955 52.8357 701.687 52.0474 700.758 51.4698C700.446 51.276 700.173 51.1058 699.995 50.9722C698.576 49.9523 697.068 48.8877 695.56 47.9569C695.075 47.6601 694.375 47.4125 693.703 47.1743C693.27 47.021 692.848 46.8715 692.5 46.7153C692.146 46.5708 691.663 46.4262 691.141 46.2701C689.902 45.8994 688.446 45.4637 687.977 44.8087C686.772 43.2411 685.93 41.3456 685.09 39.4527C685.003 39.2572 684.916 39.0617 684.829 38.8666C684.389 37.8611 683.9 36.8359 683.408 35.8048C682.858 34.6533 682.305 33.4945 681.814 32.3481C681.6 31.8811 681.437 31.4396 681.277 31.005C681.072 30.4493 680.871 29.9049 680.572 29.3328C677.335 23.0805 672.546 17.8478 666.737 14.1674C664.83 12.9701 662.702 11.8612 660.352 11.1076C659.634 10.8924 658.839 10.8578 658.036 10.8228C657.351 10.7929 656.66 10.7628 656.006 10.62H655.075C654.537 10.4706 654.06 10.0395 653.616 9.63844C653.401 9.44415 653.193 9.25691 652.991 9.1122C651.616 8.18111 650.242 7.55991 648.601 6.89505C648.024 6.6291 646.384 6.00819 645.807 6.49613C645.452 6.58487 645.275 6.71784 645.186 7.07253C644.832 7.60471 645.142 8.40282 645.364 8.89048C645.803 9.82817 646.359 10.5142 646.929 11.2171C647.221 11.578 647.517 11.9433 647.803 12.3495C647.939 12.5421 648.082 12.7391 648.226 12.9394C648.881 13.8455 649.584 14.8193 650.02 15.7637C650.635 17.0885 651.073 18.4891 651.51 19.8845C651.892 21.1047 652.273 22.3211 652.769 23.4795C653.168 24.4108 653.789 25.4749 654.365 26.3175C654.546 26.5641 654.782 26.7863 655.021 27.0112C655.426 27.393 655.839 27.7827 656.006 28.313C656.437 29.0316 655.646 31.0896 655.165 32.34C655.052 32.6326 654.957 32.8811 654.898 33.0577C653.745 36.6936 653.966 41.7489 655.297 44.8971C655.344 45.008 655.391 45.1208 655.439 45.2343C655.923 46.3915 656.443 47.6336 657.735 47.9569C657.776 47.9167 657.779 47.9038 657.788 47.8977C657.799 47.8902 657.816 47.8925 657.913 47.8681C657.978 47.3584 658.033 46.8526 658.087 46.3539C658.294 44.4663 658.488 42.6807 659.154 41.1725C659.472 40.3937 659.995 39.765 660.506 39.1522C660.78 38.8228 661.05 38.4981 661.283 38.1572C661.564 38.326 661.667 38.709 661.773 39.1024C661.834 39.3289 661.895 39.5589 661.993 39.7534C662.034 39.8532 662.077 39.9538 662.119 40.0549C662.66 41.3462 663.241 42.7355 663.899 44.0102C665.363 46.8483 667.004 49.5973 668.866 52.0807C669.486 52.9676 670.373 53.9432 671.172 54.7413C671.293 54.8475 671.42 54.9382 671.544 55.0274C671.784 55.199 672.016 55.3656 672.191 55.6282H672.28V55.7614C671.438 55.4526 670.792 54.7887 670.161 54.1405C669.795 53.7645 669.434 53.3938 669.043 53.1008C667.048 51.593 664.653 49.3314 663.278 47.1587C662.845 46.2261 662.387 45.3184 661.923 44.3982C661.769 44.0934 661.615 43.7872 661.46 43.4783C661.46 43.4783 661.461 43.4338 661.46 43.3896C661.291 43.6156 661.265 43.8415 661.235 44.1134C661.217 44.2682 661.198 44.438 661.15 44.6311C660.986 45.2634 660.904 45.9208 660.825 46.5562C660.628 48.1492 660.448 49.6035 659.022 50.174C656.76 51.1054 655.075 48.666 654.365 47.5577C652.104 43.8773 651.483 37.6692 653.079 32.6585C653.203 32.2729 653.289 31.8604 653.375 31.449C653.535 30.678 653.695 29.9111 654.1 29.3328C654.011 28.7999 653.704 28.5239 653.405 28.2541C653.256 28.1198 653.109 27.9871 652.991 27.825C652.37 26.9827 651.838 26.0071 651.35 25.076C650.641 23.6919 650.087 22.1021 649.549 20.5613C649.381 20.0781 649.214 19.5996 649.044 19.1339C648.893 18.7448 648.794 18.3555 648.697 17.9715C648.595 17.5678 648.494 17.1698 648.335 16.7838C647.916 15.8755 647.222 14.9674 646.577 14.1244C646.404 13.8971 646.233 13.6746 646.073 13.458C645.901 13.2101 645.672 12.9228 645.417 12.6025C644.167 11.0319 642.285 8.6685 643.28 6.27442C645.142 1.70714 651.661 5.16556 654.188 6.76208C654.441 6.92455 654.708 7.16042 654.984 7.40397C655.387 7.75883 655.807 8.12998 656.228 8.31409C656.782 8.33635 657.337 8.3696 657.891 8.40285C658.445 8.43609 659 8.46932 659.554 8.49157C659.735 8.53405 659.916 8.57585 660.095 8.6174C661.975 9.05281 663.732 9.45953 665.23 10.3095C672.857 14.7883 677.823 19.3556 682.39 26.8939C683.01 27.9084 683.433 28.9768 683.864 30.0647C684.111 30.6886 684.361 31.3189 684.652 31.9491C685.76 34.521 687.002 37.2255 688.288 39.6647C688.45 39.988 688.601 40.3218 688.752 40.6562C689.141 41.5145 689.532 42.3771 690.106 43.0791C690.313 43.3743 690.775 43.5318 691.217 43.6827C691.44 43.7585 691.658 43.8327 691.835 43.9218C692.409 44.2172 693.03 44.4854 693.656 44.7557C694.628 45.1751 695.611 45.5997 696.447 46.1389C699.019 47.7352 701.502 49.6416 703.764 51.5931C704.221 52.0021 704.6 52.5024 704.978 53.002C705.297 53.4233 705.616 53.8442 705.981 54.2094V54.6083C705.272 54.8301 704.562 55.0518 703.852 55.2293C703.081 55.4277 702.353 55.5054 701.63 55.5826C700.9 55.6606 700.176 55.738 699.418 55.9386C699.323 55.966 699.225 55.9942 699.125 56.023C698.252 56.2748 697.234 56.5687 696.358 56.6483C696.403 56.6925 696.447 56.7368 696.447 56.7368C696.875 57.9534 698.692 58.9993 700.181 59.8565C700.701 60.1553 701.18 60.4312 701.547 60.6834C703.276 61.925 704.872 63.4327 706.158 65.1619C706.379 65.383 706.601 65.5931 706.822 65.8031C707.044 66.0144 707.266 66.2256 707.489 66.448C707.639 66.6627 707.737 66.9085 707.834 67.1504C707.937 67.408 708.038 67.6611 708.198 67.867V68C707.81 67.8615 707.543 67.5843 707.279 67.3094C707.12 67.1444 706.962 66.9802 706.779 66.8472C706.361 66.5624 705.944 66.2532 705.526 65.944C704.968 65.5309 704.411 65.1178 703.852 64.763C702.994 64.221 702.067 63.7941 701.136 63.3651C700.238 62.9516 699.336 62.5361 698.487 62.0137C697.511 61.3928 696.58 60.6834 695.649 59.974C694.806 59.3531 693.876 58.1555 693.343 57.2689C693.209 57.0582 693.124 56.8308 693.043 56.6119C692.936 56.3244 692.835 56.0514 692.633 55.8499C692.7 55.2199 693.312 55.061 693.894 54.9096C694.091 54.8586 694.284 54.8084 694.452 54.7413Z" fill="#1864AB" fill-opacity="0.5"/>
<path d="M656.006 15.1873C656.538 15.0543 657.07 14.9653 657.824 14.9653C657.965 15.1059 658.14 15.2256 658.317 15.3464C658.587 15.5306 658.861 15.7175 659.021 15.9854C659.12 16.1233 659.183 16.2612 659.247 16.3992C659.326 16.5717 659.406 16.7442 659.553 16.9167C659.553 17.9808 659.243 18.6902 658.622 19.1339C658.622 19.1339 658.578 19.1781 658.534 19.2226C658.356 18.8683 658.19 18.514 658.024 18.1597C657.858 17.8044 657.691 17.4492 657.514 17.0939C657.341 16.8523 657.141 16.6307 656.941 16.4084C656.627 16.0597 656.312 15.7091 656.095 15.276H656.006V15.1873Z" fill="#1864AB" fill-opacity="0.5"/>
<path fill-rule="evenodd" clip-rule="evenodd" d="M753.026 60.0151C754.194 62.7528 754.082 67.418 754.082 67.418L755.786 68.0001C755.786 68.0001 755.453 63.4286 755.952 61.2675C756.092 60.5949 756.429 60.0076 756.83 59.5161C756.746 59.5756 756.7 59.6053 756.7 59.6053C755.04 58.8275 754.549 55.2224 754.469 51.8433C754.138 56.0255 753.664 59.0778 753.209 60.1454C753.209 60.1454 753.146 60.1017 753.026 60.0151Z" fill="#1864AB" fill-opacity="0.5"/>
<path fill-rule="evenodd" clip-rule="evenodd" d="M754.084 4.26825L754.082 4.16642C754.082 4.16642 754.997 6.49356 755.952 7.82335C756.825 9.69362 764.763 14.5559 768.129 29.3921C771.62 49.7974 756.7 59.6052 756.7 59.6052C755.04 58.8275 754.549 55.2223 754.469 51.8432C754.138 56.0255 753.664 59.0778 753.209 60.1453C753.209 60.1453 739.204 50.5867 740.036 33.7559C740.825 16.9247 750.716 8.65467 752.627 7.15845C753.874 5.82866 753.916 5.32979 753.999 4C754.028 4.06274 754.057 4.15276 754.084 4.26825V4.26825Z" fill="#1864AB" fill-opacity="0.5"/>
<defs>
<clipPath id="clip0_0_1">
<rect x="191" y="4" width="64" height="64" rx="8" fill="white"/>
</clipPath>
<clipPath id="clip1_0_1">
<rect width="64" height="64" fill="white" transform="translate(0 5)"/>
</clipPath>
</defs>
</svg>
