<svg width="864" height="68" viewBox="0 0 864 68" fill="none" xmlns="http://www.w3.org/2000/svg">
<path d="M395.621 22.9559C394.957 22.7274 394.269 22.5112 393.561 22.3067C393.677 21.8315 393.784 21.3625 393.879 20.9015C395.438 13.3312 394.419 7.23256 390.937 5.22462C387.598 3.29928 382.138 5.30676 376.623 10.1059C376.093 10.5674 375.561 11.056 375.03 11.5681C374.675 11.2293 374.322 10.9019 373.969 10.5887C368.19 5.45713 362.397 3.29461 358.918 5.30835C355.583 7.23928 354.595 12.9726 355.999 20.147C356.134 20.84 356.293 21.5476 356.472 22.2672C355.652 22.4999 354.86 22.748 354.103 23.012C347.327 25.3743 343 29.0767 343 32.917C343 36.8833 347.645 40.8616 354.703 43.2738C355.26 43.4642 355.838 43.6442 356.433 43.8151C356.24 44.5933 356.072 45.3558 355.931 46.0996C354.592 53.1495 355.638 58.7474 358.964 60.6661C362.4 62.6476 368.167 60.6109 373.783 55.7023C374.226 55.3143 374.672 54.9028 375.118 54.4715C375.696 55.0285 376.274 55.5556 376.848 56.05C382.287 60.7306 387.659 62.6206 390.983 60.6965C394.416 58.7093 395.531 52.6959 394.083 45.3795C393.972 44.8208 393.844 44.2499 393.699 43.6689C394.104 43.5492 394.502 43.4256 394.889 43.2971C402.226 40.8662 407 36.9363 407 32.917C407 29.0628 402.533 25.3355 395.621 22.9559ZM394.03 40.7019C393.68 40.8177 393.32 40.9297 392.955 41.0383C392.145 38.4741 391.051 35.7474 389.714 32.9303C390.99 30.1803 392.041 27.4885 392.828 24.941C393.483 25.1304 394.119 25.3302 394.731 25.5411C400.653 27.5799 404.266 30.5943 404.266 32.917C404.266 35.3911 400.364 38.6028 394.03 40.7019ZM391.401 45.9105C392.041 49.1457 392.133 52.0707 391.709 54.3573C391.327 56.4119 390.561 57.7818 389.613 58.3304C387.596 59.4979 383.283 57.9804 378.631 53.9775C378.098 53.5186 377.561 53.0286 377.022 52.5101C378.825 50.5378 380.628 48.2449 382.387 45.6985C385.481 45.424 388.404 44.9751 391.055 44.3623C391.185 44.889 391.301 45.4055 391.401 45.9105ZM364.819 58.1287C362.848 58.8246 361.279 58.8445 360.33 58.2975C358.312 57.1331 357.472 52.6386 358.617 46.6095C358.748 45.919 358.904 45.2098 359.084 44.4848C361.706 45.0645 364.607 45.4817 367.709 45.7331C369.48 48.2249 371.334 50.5152 373.203 52.5207C372.795 52.9148 372.388 53.2901 371.983 53.6437C369.5 55.8142 367.012 57.3541 364.819 58.1287ZM355.587 40.6867C352.466 39.6201 349.889 38.2338 348.123 36.7211C346.535 35.3617 345.734 34.0121 345.734 32.917C345.734 30.5866 349.208 27.6141 355.003 25.5937C355.706 25.3486 356.442 25.1175 357.206 24.9005C358.007 27.5056 359.057 30.2293 360.325 32.9835C359.041 35.7786 357.976 38.5457 357.167 41.1814C356.622 41.0249 356.095 40.8601 355.587 40.6867ZM358.682 19.622C357.479 13.4751 358.278 8.83814 360.288 7.67457C362.429 6.43501 367.164 8.20236 372.154 12.6332C372.473 12.9164 372.793 13.2129 373.114 13.5195C371.255 15.5162 369.417 17.7893 367.662 20.2664C364.652 20.5454 361.771 20.9935 359.122 21.5937C358.955 20.9237 358.808 20.2655 358.682 19.622ZM386.288 26.4388C385.655 25.3449 385.005 24.2769 384.342 23.2381C386.384 23.4962 388.341 23.8389 390.178 24.2582C389.626 26.026 388.939 27.8744 388.13 29.7692C387.549 28.667 386.935 27.5557 386.288 26.4388ZM375.031 15.4735C376.292 16.8397 377.555 18.3651 378.797 20.0201C377.545 19.961 376.278 19.9302 375 19.9302C373.734 19.9302 372.476 19.9603 371.232 20.0184C372.476 18.3788 373.75 16.8554 375.031 15.4735ZM363.7 26.4577C363.068 27.5546 362.465 28.6598 361.894 29.7671C361.098 27.8789 360.417 26.0222 359.86 24.2293C361.686 23.8207 363.633 23.4865 365.662 23.2333C364.99 24.2817 364.335 25.3576 363.7 26.4574V26.4577ZM365.721 42.7957C363.624 42.5618 361.648 42.2449 359.822 41.8476C360.388 40.0227 361.084 38.1263 361.897 36.1974C362.47 37.3039 363.075 38.4096 363.711 39.5089H363.711C364.36 40.6289 365.031 41.7259 365.721 42.7957ZM375.106 50.5533C373.81 49.1551 372.518 47.6086 371.255 45.945C372.481 45.9931 373.73 46.0177 375 46.0177C376.304 46.0177 377.594 45.9883 378.863 45.9318C377.617 47.6253 376.359 49.1743 375.106 50.5533ZM388.156 36.0991C389.011 38.0488 389.732 39.9353 390.305 41.7291C388.449 42.1524 386.446 42.4934 384.335 42.7467C384.999 41.6939 385.655 40.6076 386.299 39.4901C386.951 38.3596 387.57 37.2274 388.156 36.0991ZM383.931 38.1242C382.931 39.8589 381.904 41.5148 380.861 43.0779C378.962 43.2137 377 43.2836 375 43.2836C373.008 43.2836 371.071 43.2218 369.206 43.1007C368.121 41.5171 367.071 39.8563 366.077 38.1392H366.078C365.086 36.4267 364.174 34.6998 363.347 32.9826C364.173 31.2614 365.083 29.5326 366.069 27.8232L366.069 27.8236C367.057 26.1096 368.098 24.4569 369.172 22.8832C371.076 22.7393 373.027 22.6643 375 22.6643H375C376.981 22.6643 378.936 22.7399 380.838 22.8851C381.897 24.4472 382.93 26.0946 383.922 27.8088C384.926 29.5421 385.847 31.2595 386.681 32.9438C385.85 34.657 384.93 36.3916 383.931 38.1242ZM389.571 7.59323C391.714 8.82914 392.548 13.8136 391.201 20.3497C391.115 20.7667 391.019 21.1915 390.914 21.622C388.258 21.0094 385.375 20.5535 382.356 20.2703C380.598 17.766 378.775 15.4893 376.946 13.5183C377.438 13.0452 377.929 12.5941 378.418 12.1683C383.143 8.05643 387.559 6.43296 389.571 7.59323ZM375 27.202C378.156 27.202 380.715 29.7606 380.715 32.917C380.715 36.0732 378.156 38.632 375 38.632C371.844 38.632 369.285 36.0732 369.285 32.917C369.285 29.7606 371.844 27.202 375 27.202Z" fill="#1864AB" fill-opacity="0.5"/>
<g clip-path="url(#clip0_0_1)">
<path fill-rule="evenodd" clip-rule="evenodd" d="M316 1H262C259.239 1 257 3.23858 257 6V60C257 62.7614 259.239 65 262 65H316C318.761 65 321 62.7614 321 60V6C321 3.23858 318.761 1 316 1ZM294.63 58.0238V51.1188C295.882 52.169 297.243 52.9565 298.711 53.4815C300.18 54.0067 301.663 54.2692 303.16 54.2692C304.038 54.2692 304.805 54.19 305.46 54.0317C306.115 53.8735 306.662 53.6542 307.101 53.3737C307.54 53.0933 307.868 52.7622 308.083 52.3812C308.299 52 308.408 51.5863 308.408 51.1405C308.408 50.5362 308.235 49.9967 307.889 49.522C307.544 49.0472 307.072 48.6085 306.475 48.2057C305.877 47.803 305.168 47.4147 304.347 47.0407C303.527 46.6665 302.641 46.2855 301.691 45.897C299.272 44.89 297.47 43.66 296.282 42.2072C295.094 40.7542 294.5 38.9992 294.5 36.9422C294.5 35.331 294.824 33.9465 295.472 32.7885C296.12 31.6305 297.001 30.6775 298.117 29.9293C299.233 29.1813 300.525 28.631 301.994 28.2787C303.462 27.9262 305.017 27.75 306.658 27.75C308.271 27.75 309.7 27.847 310.945 28.0413C312.19 28.2355 313.339 28.534 314.389 28.9368V35.3885C313.871 35.029 313.306 34.7125 312.694 34.4393C312.082 34.1658 311.452 33.9392 310.805 33.7595C310.157 33.5795 309.513 33.4465 308.872 33.3602C308.231 33.274 307.623 33.2308 307.047 33.2308C306.255 33.2308 305.535 33.3062 304.888 33.4572C304.24 33.6085 303.693 33.8205 303.246 34.094C302.8 34.3673 302.454 34.6945 302.209 35.0757C301.965 35.457 301.842 35.8848 301.842 36.3595C301.842 36.8775 301.979 37.3413 302.253 37.7513C302.526 38.1613 302.915 38.5498 303.419 38.9165C303.923 39.2835 304.535 39.643 305.255 39.9955C305.975 40.348 306.788 40.711 307.695 41.0853C308.933 41.603 310.045 42.1532 311.032 42.7357C312.018 43.3185 312.863 43.9765 313.569 44.7103C314.274 45.4438 314.814 46.2817 315.188 47.224C315.563 48.1662 315.75 49.2633 315.75 50.5148C315.75 52.241 315.423 53.6903 314.768 54.8625C314.112 56.035 313.223 56.9845 312.1 57.711C310.978 58.4372 309.671 58.9587 308.181 59.2752C306.691 59.5918 305.118 59.75 303.462 59.75C301.763 59.75 300.147 59.6063 298.614 59.3185C297.081 59.0308 295.753 58.5993 294.63 58.0238ZM292 33.9355H283.121V59.25H276.086V33.9355H267.25V28.25H292V33.9355Z" fill="#1864AB" fill-opacity="0.5"/>
</g>
<rect x="518" width="64" height="64" stroke="#1864AB" stroke-opacity="0.5"/>
<path fill-rule="evenodd" clip-rule="evenodd" d="M550 1.5C532.743 1.5 518.75 15.4909 518.75 32.7503C518.75 46.5574 527.704 58.2714 540.121 62.4035C541.683 62.6928 542.256 61.7256 542.256 60.9002C542.256 60.155 542.227 57.6933 542.214 55.0821C533.52 56.9725 531.685 51.395 531.685 51.395C530.264 47.7829 528.215 46.8224 528.215 46.8224C525.38 44.8828 528.429 44.9227 528.429 44.9227C531.567 45.1431 533.22 48.143 533.22 48.143C536.007 52.9205 540.53 51.5393 542.313 50.7408C542.594 48.7211 543.404 47.3425 544.298 46.5621C537.356 45.7719 530.06 43.0923 530.06 31.1181C530.06 27.7063 531.281 24.9185 533.28 22.7301C532.955 21.943 531.885 18.7645 533.582 14.46C533.582 14.46 536.207 13.6202 542.178 17.6633C544.671 16.9709 547.344 16.6237 550 16.6118C552.656 16.6237 555.331 16.9709 557.829 17.6633C563.793 13.6202 566.414 14.46 566.414 14.46C568.115 18.7645 567.045 21.943 566.72 22.7301C568.724 24.9185 569.937 27.7063 569.937 31.1181C569.937 43.1208 562.626 45.7636 555.667 46.5373C556.788 47.507 557.787 49.4088 557.787 52.3244C557.787 56.5057 557.751 59.8709 557.751 60.9002C557.751 61.7318 558.313 62.7063 559.897 62.3994C572.307 58.2626 581.25 46.5528 581.25 32.7503C581.25 15.4909 567.259 1.5 550 1.5ZM530.454 46.0167C530.385 46.1719 530.141 46.2185 529.919 46.1119C529.692 46.0099 529.565 45.7983 529.638 45.6425C529.705 45.4826 529.95 45.4381 530.176 45.5452C530.404 45.6472 530.533 45.8609 530.454 46.0167ZM531.991 47.3882C531.842 47.5264 531.551 47.4622 531.353 47.2439C531.149 47.026 531.111 46.7347 531.262 46.5944C531.415 46.4562 531.698 46.5209 531.903 46.7388C532.107 46.9592 532.147 47.2485 531.991 47.3882ZM533.046 49.1432C532.854 49.2761 532.541 49.1514 532.348 48.8735C532.156 48.5956 532.156 48.2624 532.352 48.1289C532.546 47.9954 532.854 48.1154 533.051 48.3912C533.242 48.6738 533.242 49.007 533.046 49.1432ZM534.829 51.1756C534.658 51.3645 534.293 51.3138 534.026 51.056C533.753 50.804 533.677 50.4464 533.849 50.2575C534.022 50.0681 534.389 50.1214 534.658 50.3771C534.929 50.6286 535.012 50.9888 534.829 51.1756ZM537.134 51.8617C537.059 52.1065 536.707 52.2177 536.354 52.1137C536 52.0066 535.769 51.7199 535.84 51.4726C535.914 51.2262 536.267 51.1103 536.623 51.2216C536.976 51.3282 537.208 51.6128 537.134 51.8617ZM539.758 52.1527C539.766 52.4105 539.466 52.6242 539.095 52.6288C538.721 52.6371 538.419 52.4286 538.415 52.175C538.415 51.9147 538.708 51.703 539.082 51.6968C539.453 51.6896 539.758 51.8966 539.758 52.1527ZM542.335 52.054C542.379 52.3055 542.121 52.5637 541.752 52.6325C541.389 52.6988 541.053 52.5435 541.007 52.2941C540.962 52.0364 541.225 51.7781 541.587 51.7114C541.957 51.6472 542.287 51.7983 542.335 52.054Z" fill="#1864AB" fill-opacity="0.5"/>
<g clip-path="url(#clip1_0_1)">
<path d="M740 2C722.327 2 708 16.3269 708 34C708 51.6732 722.327 66 740 66C757.673 66 772 51.6732 772 34C772 16.3269 757.673 2 740 2ZM740 5.25424C755.876 5.25424 768.746 18.1242 768.746 34C768.746 49.8758 755.876 62.7458 740 62.7458C724.124 62.7458 711.254 49.8758 711.254 34C711.254 18.1242 724.124 5.25424 740 5.25424Z" fill="#1864AB" fill-opacity="0.5"/>
<path d="M740.361 11.2202C752.942 11.2202 763.141 21.419 763.141 33.9999C763.141 46.5807 752.942 56.7795 740.361 56.7795C727.781 56.7795 717.582 46.5807 717.582 33.9999C717.582 30.9253 718.191 27.9929 719.295 25.3167C720.907 27.5123 723.508 28.9377 726.441 28.9377C731.333 28.9377 735.299 24.9715 735.299 20.079C735.299 17.146 733.874 14.5459 731.678 12.9336C734.354 11.8294 737.287 11.2202 740.361 11.2202Z" fill="#1864AB" fill-opacity="0.5"/>
</g>
<rect x="87" y="1" width="64" height="64" stroke="#1864AB" stroke-opacity="0.5"/>
<path fill-rule="evenodd" clip-rule="evenodd" d="M103.896 8.75664C103.896 8.75664 102.907 1.89258 118.735 1.89258C135.276 1.89258 133.999 10.1683 133.999 10.1683V23.8435C133.999 32.114 125.582 31.978 125.582 31.978H110.601C101.617 31.978 101.902 40.8183 101.902 40.8183V48.2294H96.6256C96.6256 48.2294 87.7853 48.7958 87.7853 32.825C87.7853 16.8542 97.9137 18.0028 97.9137 18.0028H119.018V15.8677H103.913L103.896 8.75664ZM113.124 9.39187C113.124 7.88909 111.909 6.67448 110.407 6.67448C108.904 6.67448 107.689 7.88909 107.689 9.39187C107.689 10.8947 108.904 12.1093 110.407 12.1093C111.909 12.1093 113.124 10.8947 113.124 9.39187Z" fill="#1864AB" fill-opacity="0.5"/>
<path fill-rule="evenodd" clip-rule="evenodd" d="M134.025 57.0534C134.025 57.0534 135.013 63.9175 119.185 63.9175C102.644 63.9175 103.922 55.6418 103.922 55.6418V41.9666C103.922 33.696 112.338 33.8321 112.338 33.8321H127.319C136.303 33.8321 136.019 24.9917 136.019 24.9917V17.5807H141.295C141.295 17.5807 150.135 17.0143 150.135 32.9851C150.135 48.9559 140.006 47.8072 140.006 47.8072H118.903V49.9423H134.007L134.025 57.0534ZM124.796 56.4182C124.796 57.921 126.011 59.1356 127.513 59.1356C129.016 59.1356 130.231 57.921 130.231 56.4182C130.231 54.9154 129.016 53.7008 127.513 53.7008C126.011 53.7008 124.796 54.9154 124.796 56.4182Z" fill="#1864AB" fill-opacity="0.5"/>
<path fill-rule="evenodd" clip-rule="evenodd" d="M456.816 20.0262C456.128 19.9305 455.506 20.0191 455.19 20.2575C455.013 20.3917 454.958 20.5472 454.944 20.6543C454.904 20.9378 455.103 21.2512 455.225 21.4129C455.57 21.8705 456.074 22.1851 456.574 22.2544C456.646 22.2644 456.718 22.2693 456.79 22.2693C457.622 22.2693 458.379 21.621 458.446 21.1424C458.529 20.5431 457.659 20.1436 456.816 20.0262Z" fill="#1864AB" fill-opacity="0.5"/>
<path fill-rule="evenodd" clip-rule="evenodd" d="M479.594 20.0449H479.594C479.528 19.5752 478.692 19.4412 477.899 19.5515C477.107 19.6619 476.339 20.0194 476.403 20.4903C476.454 20.8564 477.115 21.4815 477.898 21.4814C477.964 21.4814 478.031 21.477 478.098 21.4676C478.62 21.3952 479.004 21.0635 479.186 20.8722C479.463 20.581 479.623 20.2561 479.594 20.0449Z" fill="#1864AB" fill-opacity="0.5"/>
<mask id="path-11-inside-1_0_1" fill="white">
<path fill-rule="evenodd" clip-rule="evenodd" d="M492.664 40.166C492.373 39.2862 491.436 39.003 489.881 39.3245C485.261 40.2778 483.607 39.6174 483.064 39.2174C486.654 33.7473 489.608 27.1356 491.201 20.9665C491.956 18.0443 492.373 15.3305 492.407 13.1186C492.445 10.6905 492.032 8.90652 491.179 7.81667C487.74 3.42299 482.694 1.06627 476.585 1.00151C472.386 0.954332 468.837 2.02916 468.149 2.33132C466.701 1.97107 465.122 1.74991 463.403 1.7217C460.25 1.67074 457.525 2.42551 455.269 3.96389C454.289 3.59925 451.756 2.72979 448.658 2.2309C443.303 1.36858 439.048 2.02188 436.012 4.17322C432.388 6.74032 430.715 11.3291 431.039 17.8117C431.149 19.9929 432.391 26.7024 434.352 33.128C436.934 41.5852 439.74 46.3729 442.693 47.3576C443.038 47.4729 443.437 47.5536 443.876 47.5536C444.953 47.5536 446.274 47.0681 447.648 45.4164C449.93 42.6709 452.06 40.3703 452.846 39.5344C454.006 40.1575 455.281 40.5053 456.586 40.5402C456.588 40.5743 456.591 40.6085 456.594 40.6424C456.333 40.9528 456.118 41.2248 455.935 41.457C455.032 42.604 454.844 42.8428 451.935 43.4418C451.108 43.6124 448.91 44.0653 448.878 45.6057C448.843 47.2886 451.475 47.9955 451.775 48.0704C452.821 48.3321 453.827 48.4611 454.788 48.4611C457.123 48.461 459.179 47.6935 460.821 46.2083C460.77 52.2082 461.021 58.1204 461.741 59.9218C462.331 61.3963 463.772 65.0003 468.326 65C468.993 65 469.729 64.9223 470.538 64.749C475.289 63.7301 477.353 61.63 478.151 57C478.578 54.5256 479.311 48.6166 479.656 45.4472C480.384 45.6741 481.32 45.778 482.333 45.7779C484.445 45.7779 486.882 45.3292 488.41 44.6197C490.127 43.8225 493.226 41.8658 492.664 40.166ZM481.348 18.748C481.332 19.6838 481.203 20.5332 481.067 21.4199C480.92 22.3736 480.768 23.3595 480.73 24.5565C480.692 25.7212 480.837 26.9323 480.978 28.1033C481.262 30.4686 481.554 32.9039 480.425 35.3069C480.249 34.9952 480.08 34.6551 479.925 34.2785C479.784 33.9383 479.48 33.3918 479.058 32.6353C477.416 29.6911 473.571 22.7965 475.539 19.983C476.126 19.1454 477.613 18.2846 481.348 18.748ZM476.821 2.89601C482.295 3.0169 486.624 5.06448 489.69 8.98157C492.041 11.9861 489.452 25.6574 481.957 37.4516C481.883 37.3575 481.808 37.2626 481.73 37.1652C481.698 37.1262 481.667 37.0866 481.635 37.0466C483.571 33.848 483.193 30.6834 482.856 27.8776C482.717 26.7262 482.586 25.6386 482.62 24.6172C482.654 23.5341 482.797 22.6057 482.936 21.7077C483.106 20.601 483.279 19.4561 483.231 18.1063C483.267 17.9647 483.281 17.7974 483.263 17.5989C483.141 16.3044 481.663 12.4309 478.651 8.92438C477.003 7.0068 474.601 4.86062 471.32 3.4131C472.731 3.12065 474.661 2.84792 476.821 2.89601ZM446.194 44.2078C444.68 46.0277 443.635 45.679 443.291 45.5645C441.051 44.8173 438.452 40.0834 436.161 32.5764C434.178 26.0808 433.019 19.5491 432.928 17.7176C432.638 11.9251 434.042 7.88799 437.101 5.7186C442.08 2.18816 450.265 4.30127 453.553 5.37307C453.506 5.41963 453.457 5.46332 453.41 5.51064C448.013 10.9611 448.141 20.2733 448.154 20.8424C448.154 21.062 448.172 21.373 448.198 21.8007C448.291 23.3669 448.463 26.2819 448.002 29.5832C447.573 32.6508 448.518 35.6534 450.596 37.821C450.811 38.0453 451.035 38.256 451.267 38.4543C450.342 39.4446 448.333 41.6345 446.194 44.2078ZM451.961 36.5123C450.286 34.7654 449.526 32.3352 449.874 29.8446C450.362 26.3572 450.182 23.3201 450.085 21.6884C450.072 21.4601 450.06 21.26 450.052 21.1021C450.841 20.4032 454.495 18.4454 457.1 19.0424C458.289 19.3148 459.014 20.1244 459.315 21.5171C460.874 28.7271 459.521 31.7323 458.434 34.1471C458.21 34.6446 457.999 35.1149 457.818 35.6015L457.678 35.9775C457.323 36.9284 456.993 37.8124 456.789 38.652C455.009 38.6465 453.277 37.8863 451.961 36.5123ZM452.234 46.236C451.714 46.1062 451.247 45.8806 450.973 45.6936C451.202 45.5858 451.609 45.4392 452.316 45.2936C455.738 44.5891 456.267 44.092 457.421 42.6267C457.685 42.2909 457.985 41.91 458.4 41.4462C458.401 41.4459 458.401 41.4457 458.401 41.4456C459.02 40.753 459.302 40.8704 459.816 41.0832C460.232 41.2553 460.637 41.7765 460.801 42.3502C460.878 42.6211 460.966 43.1355 460.68 43.5355C458.27 46.9107 454.757 46.8673 452.234 46.236ZM470.142 62.8998C465.955 63.7967 464.473 61.6609 463.497 59.2192C462.866 57.6428 462.557 50.5344 462.776 42.6846C462.779 42.5801 462.764 42.4792 462.736 42.3844C462.711 42.2013 462.672 42.0161 462.619 41.8297C462.292 40.6875 461.495 39.7321 460.539 39.336C460.16 39.1787 459.463 38.8901 458.625 39.1043C458.804 38.3684 459.114 37.5377 459.449 36.6379L459.59 36.2593C459.749 35.8326 459.948 35.3906 460.158 34.9228C461.296 32.396 462.853 28.9354 461.163 21.1171C460.53 18.1889 458.415 16.7589 455.21 17.091C453.288 17.2898 451.53 18.0652 450.653 18.5098C450.464 18.6054 450.292 18.6976 450.131 18.7876C450.375 15.837 451.3 10.3231 454.759 6.83455C456.937 4.63817 459.837 3.55348 463.371 3.61188C470.334 3.72594 474.8 7.29931 477.32 10.277C479.491 12.8431 480.667 15.4278 481.136 16.8217C477.607 16.463 475.207 17.1597 473.99 18.899C471.343 22.6826 475.438 30.0266 477.406 33.556C477.767 34.2029 478.079 34.7618 478.177 34.9994C478.818 36.5526 479.647 37.5895 480.253 38.3466C480.439 38.5785 480.619 38.8035 480.756 38.9999C479.687 39.3081 477.767 40.02 477.942 43.5786C477.801 45.3644 476.798 53.7246 476.288 56.6784C475.615 60.5806 474.179 62.0342 470.142 62.8998ZM487.614 42.9045C486.521 43.4118 484.692 43.7924 482.955 43.874C481.036 43.964 480.059 43.6591 479.829 43.4716C479.721 41.254 480.547 41.0222 481.42 40.7769C481.558 40.7383 481.691 40.7008 481.821 40.6556C481.901 40.721 481.989 40.7859 482.085 40.8494C483.628 41.8675 486.379 41.9774 490.263 41.1757C490.277 41.1727 490.291 41.1699 490.306 41.1671C489.782 41.6569 488.885 42.3143 487.614 42.9045Z"/>
</mask>
<path d="M489.881 39.3245L491.498 47.1594L491.499 47.159L489.881 39.3245ZM483.064 39.2174L476.376 34.8273L472.215 41.1652L478.321 45.6598L483.064 39.2174ZM491.201 20.9665L483.456 18.9654L483.456 18.9658L491.201 20.9665ZM492.407 13.1186L484.408 12.9947L484.408 12.9958L492.407 13.1186ZM491.179 7.81667L497.479 2.88622L497.479 2.8862L491.179 7.81667ZM476.585 1.00151L476.495 9.001L476.5 9.00106L476.585 1.00151ZM468.149 2.33132L466.219 10.0948L468.868 10.7536L471.367 9.65586L468.149 2.33132ZM463.403 1.7217L463.534 -6.27722L463.532 -6.27725L463.403 1.7217ZM455.269 3.96389L452.479 11.4617L456.357 12.9046L459.775 10.5737L455.269 3.96389ZM448.658 2.2309L449.931 -5.66729L449.93 -5.66735L448.658 2.2309ZM436.012 4.17322L431.387 -2.35465L431.387 -2.35455L436.012 4.17322ZM431.039 17.8117L439.03 17.4122L439.03 17.4122L431.039 17.8117ZM434.352 33.128L426.701 35.4635L426.701 35.4636L434.352 33.128ZM442.693 47.3576L445.224 39.7688L445.224 39.7686L442.693 47.3576ZM447.648 45.4164L453.798 50.5325L453.8 50.5302L447.648 45.4164ZM452.846 39.5344L456.63 32.4859L451.22 29.5816L447.015 34.0564L452.846 39.5344ZM456.586 40.5402L464.568 40.0081L464.083 32.7379L456.8 32.5431L456.586 40.5402ZM456.594 40.6424L462.711 45.7991L464.859 43.2508L464.563 39.931L456.594 40.6424ZM455.935 41.457L462.22 46.4075L462.22 46.4073L455.935 41.457ZM451.935 43.4418L450.321 35.6062L450.319 35.6067L451.935 43.4418ZM448.878 45.6057L456.876 45.7722L456.876 45.7719L448.878 45.6057ZM451.775 48.0704L453.718 40.3099L453.714 40.3088L451.775 48.0704ZM454.788 48.4611V56.4611H454.788L454.788 48.4611ZM460.821 46.2083L468.821 46.2759L468.975 28.0512L455.456 40.2742L460.821 46.2083ZM461.741 59.9218L454.313 62.8921L454.313 62.8933L461.741 59.9218ZM468.326 65V57H468.325L468.326 65ZM470.538 64.749L472.214 72.5713L472.215 72.5712L470.538 64.749ZM478.151 57L470.268 55.6392L470.267 55.6407L478.151 57ZM479.656 45.4472L482.038 37.81L472.754 34.9147L471.703 44.5824L479.656 45.4472ZM482.333 45.7779V37.7779H482.332L482.333 45.7779ZM488.41 44.6197L491.779 51.8761L491.78 51.8755L488.41 44.6197ZM481.067 21.4199L488.974 22.6373L488.974 22.6372L481.067 21.4199ZM480.73 24.5565L488.726 24.8157L488.726 24.8118L480.73 24.5565ZM480.978 28.1033L488.921 27.1488L488.921 27.1485L480.978 28.1033ZM480.425 35.3069L473.454 39.2317L481.066 52.7519L487.665 38.7095L480.425 35.3069ZM479.925 34.2785L472.529 37.3285L472.529 37.3285L479.925 34.2785ZM479.058 32.6353L486.045 28.739L486.045 28.739L479.058 32.6353ZM475.539 19.983L468.985 15.3965L468.984 15.3974L475.539 19.983ZM489.69 8.98157L495.99 4.05148L495.99 4.05112L489.69 8.98157ZM481.957 37.4516L475.671 42.3995L482.654 51.2713L488.709 41.7423L481.957 37.4516ZM481.73 37.1652L475.476 42.1539L475.48 42.1595L475.485 42.1651L481.73 37.1652ZM481.635 37.0466L474.791 32.903L471.899 37.6795L475.386 42.0413L481.635 37.0466ZM482.856 27.8776L490.799 26.9235L490.798 26.9223L482.856 27.8776ZM482.62 24.6172L490.615 24.8772L490.616 24.8714L482.62 24.6172ZM482.936 21.7077L490.842 22.9258L490.842 22.9247L482.936 21.7077ZM483.231 18.1063L475.474 16.1523L475.196 17.2539L475.236 18.3893L483.231 18.1063ZM483.263 17.5989L491.228 16.8505L491.227 16.8485L483.263 17.5989ZM478.651 8.92438L484.719 3.71148L484.719 3.71114L478.651 8.92438ZM471.32 3.4131L469.696 -4.42044L445.237 0.648632L468.09 10.7323L471.32 3.4131ZM443.291 45.5645L440.759 53.1534L440.762 53.1543L443.291 45.5645ZM436.161 32.5764L443.812 30.2409L443.812 30.2409L436.161 32.5764ZM432.928 17.7176L424.938 18.117L424.938 18.1172L432.928 17.7176ZM437.101 5.7186L432.474 -0.807014L432.474 -0.806992L437.101 5.7186ZM453.553 5.37307L459.164 11.0754L468.545 1.84474L456.032 -2.23321L453.553 5.37307ZM453.41 5.51064L447.726 -0.118817L447.725 -0.118139L453.41 5.51064ZM448.154 20.8424L456.154 20.859L456.155 20.7579L456.152 20.657L448.154 20.8424ZM448.198 21.8007L440.212 22.2737L440.212 22.2741L448.198 21.8007ZM448.002 29.5832L455.925 30.6915L455.925 30.691L448.002 29.5832ZM450.596 37.821L444.82 43.3565L444.821 43.3575L450.596 37.821ZM451.267 38.4543L457.114 43.9144L462.819 37.8048L456.465 32.3732L451.267 38.4543ZM449.874 29.8446L457.797 30.9525L457.797 30.9522L449.874 29.8446ZM450.085 21.6884L442.099 22.1607L442.099 22.1613L450.085 21.6884ZM450.052 21.1021L444.746 15.1158L441.888 17.6486L442.061 21.463L450.052 21.1021ZM457.1 19.0424L455.313 26.8403L455.314 26.8404L457.1 19.0424ZM459.315 21.5171L467.134 19.8264L467.134 19.8259L459.315 21.5171ZM458.434 34.1471L465.729 37.4319L465.73 37.4304L458.434 34.1471ZM457.818 35.6015L465.315 38.3929L465.317 38.3879L457.818 35.6015ZM457.678 35.9775L465.174 38.773L465.175 38.7689L457.678 35.9775ZM456.789 38.652L456.764 46.6519L463.07 46.6713L464.562 40.545L456.789 38.652ZM450.973 45.6936L447.565 38.4558L434.903 44.4178L446.465 52.303L450.973 45.6936ZM452.316 45.2936L450.703 37.458L450.703 37.4581L452.316 45.2936ZM457.421 42.6267L451.137 37.6746L451.136 37.6769L457.421 42.6267ZM458.4 41.4462L464.361 46.7826L465.076 45.9834L465.556 45.0239L458.4 41.4462ZM458.401 41.4456L464.063 47.0976L464.219 46.9407L464.367 46.7753L458.401 41.4456ZM459.816 41.0832L456.751 48.4729L456.756 48.4749L459.816 41.0832ZM460.801 42.3502L453.11 44.5525L453.111 44.5548L460.801 42.3502ZM460.68 43.5355L467.19 48.1851L467.191 48.1844L460.68 43.5355ZM463.497 59.2192L456.069 62.1896L456.069 62.1904L463.497 59.2192ZM462.776 42.6846L470.773 42.9085L470.773 42.9051L462.776 42.6846ZM462.736 42.3844L454.809 43.468L454.896 44.1005L455.081 44.7113L462.736 42.3844ZM462.619 41.8297L454.928 44.0318L454.928 44.0324L462.619 41.8297ZM460.539 39.336L463.602 31.9456L463.601 31.9452L460.539 39.336ZM458.625 39.1043L450.851 37.2164L447.71 50.1534L460.608 46.8548L458.625 39.1043ZM459.449 36.6379L466.945 39.4341L466.947 39.4284L459.449 36.6379ZM459.59 36.2593L467.088 39.0498L467.089 39.0475L459.59 36.2593ZM460.158 34.9228L452.863 31.6392L452.863 31.6395L460.158 34.9228ZM461.163 21.1171L468.982 19.4264L468.982 19.4261L461.163 21.1171ZM455.21 17.091L456.033 25.0485L456.034 25.0484L455.21 17.091ZM450.653 18.5098L454.27 25.6456L454.27 25.6451L450.653 18.5098ZM450.131 18.7876L442.158 18.1264L440.917 33.0951L454.031 25.7724L450.131 18.7876ZM454.759 6.83455L460.44 12.4673L460.44 12.4672L454.759 6.83455ZM463.371 3.61188L463.239 11.6108L463.24 11.6108L463.371 3.61188ZM477.32 10.277L483.426 5.10935L483.426 5.10909L477.32 10.277ZM481.136 16.8217L480.327 24.7807L492.68 26.0364L488.718 14.2691L481.136 16.8217ZM473.99 18.899L467.435 14.3132L467.435 14.3132L473.99 18.899ZM477.406 33.556L470.419 37.4522L470.42 37.4531L477.406 33.556ZM478.177 34.9994L470.781 38.0501L470.782 38.0506L478.177 34.9994ZM480.253 38.3466L474.007 43.3451L474.008 43.3461L480.253 38.3466ZM480.756 38.9999L482.973 46.6866L493.71 43.5902L487.318 34.4241L480.756 38.9999ZM477.942 43.5786L485.917 44.2086L485.958 43.6978L485.933 43.1859L477.942 43.5786ZM476.288 56.6784L468.405 55.3181L468.404 55.319L476.288 56.6784ZM482.955 43.874L483.329 51.8652L483.33 51.8652L482.955 43.874ZM479.829 43.4716L471.839 43.8607L472.012 47.4186L474.772 49.6704L479.829 43.4716ZM481.42 40.7769L483.583 48.4791L483.59 48.4771L481.42 40.7769ZM481.821 40.6556L486.868 34.4488L483.399 31.6281L479.179 33.1042L481.821 40.6556ZM482.085 40.8494L486.492 34.1727L486.491 34.1721L482.085 40.8494ZM490.263 41.1757L491.88 49.0106L491.904 49.0056L491.928 49.0006L490.263 41.1757ZM490.306 41.1671L495.77 47.0103L516.465 27.6576L488.704 33.329L490.306 41.1671ZM500.259 37.6543C499.247 34.5938 496.866 32.4852 494.062 31.6372C491.758 30.9406 489.613 31.2107 488.262 31.4899L491.499 47.159C491.704 47.1168 490.805 47.3678 489.431 46.9523C488.651 46.7166 487.697 46.256 486.817 45.4202C485.925 44.5731 485.369 43.588 485.068 42.6777L500.259 37.6543ZM488.264 31.4896C487.375 31.673 486.733 31.757 486.297 31.7923C486.081 31.8098 485.923 31.8147 485.817 31.815C485.711 31.8153 485.663 31.8108 485.665 31.811C485.666 31.8111 485.898 31.8316 486.284 31.9629C486.679 32.0971 487.219 32.3424 487.806 32.7749L478.321 45.6598C481.7 48.1473 486.285 48.235 491.498 47.1593L488.264 31.4896ZM489.751 43.6074C493.807 37.4298 497.127 30.0143 498.947 22.9671L483.456 18.9658C482.089 24.2568 479.502 30.0649 476.376 34.8273L489.751 43.6074ZM498.947 22.9675C499.807 19.6373 500.36 16.2694 500.406 13.2415L484.408 12.9958C484.387 14.3916 484.105 16.4512 483.456 18.9654L498.947 22.9675ZM500.406 13.2426C500.453 10.2247 500.04 6.1586 497.479 2.88622L484.879 12.7471C484.632 12.4319 484.491 12.1606 484.416 11.992C484.343 11.8257 484.326 11.7407 484.333 11.7717C484.34 11.8018 484.364 11.9148 484.383 12.1282C484.402 12.3402 484.414 12.6262 484.408 12.9947L500.406 13.2426ZM497.479 2.8862C492.387 -3.61988 484.945 -6.9103 476.67 -6.99804L476.5 9.00106C480.442 9.04285 483.093 10.4659 484.879 12.7471L497.479 2.8862ZM476.675 -6.99799C471.374 -7.05754 466.695 -5.76736 464.932 -4.99322L471.367 9.65586C471.052 9.7939 471.004 9.78555 471.381 9.67713C471.665 9.59522 472.091 9.48608 472.624 9.37907C473.709 9.16148 475.076 8.98506 476.495 9.001L476.675 -6.99799ZM470.08 -5.43221C468.048 -5.93762 465.865 -6.23896 463.534 -6.27722L463.271 9.72062C464.378 9.73879 465.354 9.87976 466.219 10.0948L470.08 -5.43221ZM463.532 -6.27725C458.98 -6.35083 454.578 -5.24783 450.762 -2.64594L459.775 10.5737C460.472 10.0989 461.519 9.6923 463.273 9.72066L463.532 -6.27725ZM458.058 -3.53392C456.8 -4.00202 453.73 -5.05526 449.931 -5.66729L447.386 10.1291C449.781 10.5148 451.777 11.2005 452.479 11.4617L458.058 -3.53392ZM449.93 -5.66735C443.45 -6.71087 436.781 -6.1761 431.387 -2.35465L440.636 10.7011C441.315 10.2199 443.157 9.44803 447.387 10.1292L449.93 -5.66735ZM431.387 -2.35455C424.609 2.44763 422.657 10.3577 423.049 18.2112L439.03 17.4122C438.774 12.3004 440.168 11.033 440.636 10.701L431.387 -2.35455ZM423.049 18.2112C423.206 21.3391 424.657 28.7655 426.701 35.4635L442.004 30.7926C441.106 27.8517 440.364 24.8105 439.836 22.2579C439.572 20.9854 439.37 19.8701 439.231 18.9822C439.161 18.5386 439.111 18.1723 439.076 17.8857C439.06 17.7435 439.048 17.6306 439.04 17.5451C439.036 17.503 439.034 17.4705 439.032 17.447C439.03 17.4233 439.03 17.4121 439.03 17.4122L423.049 18.2112ZM426.701 35.4636C428.079 39.9793 429.642 43.9525 431.481 47.0902C433.168 49.9682 435.875 53.5171 440.162 54.9467L445.224 39.7686C446.558 40.2134 446.385 40.8761 445.285 38.9997C444.338 37.3832 443.207 34.7339 442.004 30.7924L426.701 35.4636ZM440.161 54.9464C441.194 55.2911 442.45 55.5536 443.876 55.5536V39.5536C444.423 39.5536 444.883 39.6548 445.224 39.7688L440.161 54.9464ZM443.876 55.5536C447.75 55.5536 451.195 53.6613 453.798 50.5325L441.497 40.3003C441.368 40.4556 441.505 40.2408 441.987 39.9924C442.502 39.7271 443.161 39.5536 443.876 39.5536V55.5536ZM453.8 50.5302C455.938 47.9573 457.949 45.7866 458.676 45.0124L447.015 34.0564C446.172 34.954 443.921 37.3845 441.495 40.3026L453.8 50.5302ZM449.062 46.5829C451.284 47.7759 453.777 48.4679 456.372 48.5373L456.8 32.5431C456.786 32.5427 456.729 32.5391 456.63 32.4859L449.062 46.5829ZM448.603 41.0723C448.61 41.1793 448.618 41.2665 448.622 41.3092C448.624 41.3304 448.626 41.3504 448.626 41.3556C448.627 41.3648 448.627 41.3607 448.626 41.3539L464.563 39.931C464.561 39.9072 464.559 39.886 464.558 39.8783C464.557 39.8664 464.557 39.8694 464.557 39.8735C464.558 39.8792 464.559 39.895 464.561 39.9167C464.563 39.9387 464.565 39.97 464.568 40.0081L448.603 41.0723ZM450.478 35.4858C450.123 35.9066 449.837 36.2698 449.651 36.5066L462.22 46.4073C462.399 46.1797 462.542 45.999 462.711 45.7991L450.478 35.4858ZM449.651 36.5065C449.523 36.669 449.485 36.7166 449.462 36.744C449.448 36.7605 449.516 36.6776 449.639 36.5528C449.772 36.4176 449.962 36.241 450.208 36.0549C450.456 35.8671 450.703 35.7122 450.936 35.5889C451.367 35.3598 451.638 35.2983 451.485 35.3416C451.329 35.3856 451 35.4664 450.321 35.6062L453.548 51.2773C454.827 51.0141 456.738 50.6234 458.438 49.7209C460.663 48.5401 461.885 46.8324 462.22 46.4075L449.651 36.5065ZM450.319 35.6067C449.997 35.6732 448.258 35.9944 446.542 36.8489C444.986 37.6239 440.99 40.1393 440.88 45.4395L456.876 45.7719C456.841 47.4606 456.157 48.8761 455.337 49.8362C454.624 50.6716 453.915 51.0514 453.674 51.1712C453.272 51.3716 453.046 51.381 453.551 51.2768L450.319 35.6067ZM440.88 45.4392C440.764 50.9732 445.027 53.6962 446.221 54.3807C447.868 55.3252 449.442 55.7334 449.837 55.832L453.714 40.3088C453.808 40.3324 453.917 40.3498 454.181 40.5014C454.324 40.5835 454.893 40.9188 455.488 41.652C456.163 42.4854 456.915 43.9143 456.876 45.7722L440.88 45.4392ZM449.833 55.8309C451.449 56.2357 453.11 56.4611 454.788 56.4611V40.4611C454.545 40.4611 454.192 40.4284 453.718 40.3099L449.833 55.8309ZM454.788 56.4611C458.988 56.4609 462.988 55.0344 466.186 52.1424L455.456 40.2742C455.37 40.3515 455.313 40.3793 455.266 40.3971C455.213 40.4167 455.07 40.4611 454.787 40.4611L454.788 56.4611ZM452.821 46.1408C452.795 49.2497 452.845 52.4213 453.006 55.1157C453.086 56.4574 453.199 57.7745 453.361 58.9529C453.499 59.96 453.75 61.4836 454.313 62.8921L469.169 56.9514C469.372 57.4593 469.321 57.5683 469.212 56.7727C469.126 56.1485 469.044 55.2748 468.978 54.1633C468.846 51.9512 468.796 49.1668 468.821 46.2759L452.821 46.1408ZM454.313 62.8933C454.605 63.6217 455.563 66.1627 457.673 68.4444C460.039 71.0039 463.605 73.0003 468.326 73L468.325 57C468.287 57 468.326 56.9966 468.425 57.0177C468.526 57.0391 468.656 57.079 468.802 57.1459C469.108 57.2866 469.316 57.4691 469.422 57.5835C469.51 57.6796 469.508 57.7064 469.446 57.5883C469.378 57.4609 469.315 57.3171 469.169 56.9503L454.313 62.8933ZM468.326 73C469.614 73 470.913 72.8502 472.214 72.5713L468.861 56.9266C468.544 56.9945 468.373 57 468.326 57V73ZM472.215 72.5712C475.38 71.8925 478.794 70.6235 481.534 67.8354C484.304 65.0153 485.482 61.5639 486.035 58.3594L470.267 55.6407C470.022 57.0662 469.769 56.9798 470.12 56.622C470.441 56.2961 470.447 56.5865 468.861 56.9268L472.215 72.5712ZM486.035 58.3609C486.508 55.6189 487.263 49.4935 487.609 46.312L471.703 44.5824C471.36 47.7398 470.649 53.4324 470.268 55.6392L486.035 58.3609ZM477.274 53.0844C479.063 53.6424 480.887 53.7781 482.334 53.7779L482.332 37.7779C482.091 37.7779 481.927 37.765 481.843 37.7549C481.803 37.7501 481.798 37.748 481.824 37.7533C481.849 37.7583 481.923 37.7743 482.038 37.81L477.274 53.0844ZM482.333 53.7779C485.249 53.7779 488.911 53.207 491.779 51.8761L485.042 37.3634C485.068 37.3515 484.763 37.4797 484.107 37.6036C483.498 37.7186 482.858 37.7779 482.333 37.7779V53.7779ZM491.78 51.8755C493.068 51.2773 494.983 50.2135 496.649 48.7609C497.466 48.0483 498.622 46.9015 499.494 45.3107C500.406 43.645 501.317 40.8535 500.259 37.6553L485.068 42.6767C484.292 40.3284 485.026 38.4189 485.462 37.623C485.856 36.9021 486.236 36.613 486.134 36.7017C485.962 36.8517 485.47 37.1649 485.041 37.364L491.78 51.8755ZM473.349 18.6132C473.344 18.9302 473.303 19.2711 473.16 20.2027L488.974 22.6372C489.103 21.7953 489.321 20.4373 489.347 18.8829L473.349 18.6132ZM473.16 20.2025C473.015 21.1453 472.789 22.5657 472.734 24.3011L488.726 24.8118C488.747 24.1534 488.825 23.6018 488.974 22.6373L473.16 20.2025ZM472.734 24.2972C472.673 26.1775 472.909 28.0044 473.035 29.0581L488.921 27.1485C488.766 25.8602 488.711 25.2649 488.726 24.8157L472.734 24.2972ZM473.035 29.0578C473.189 30.3368 473.249 30.9541 473.235 31.4739C473.229 31.6867 473.21 31.8016 473.199 31.8517C473.19 31.8946 473.185 31.9039 473.185 31.9043L487.665 38.7095C489.913 33.9275 489.169 29.208 488.921 27.1488L473.035 29.0578ZM487.396 31.3821C487.363 31.3232 487.34 31.275 487.32 31.2285L472.529 37.3285C472.82 38.0352 473.136 38.6672 473.454 39.2317L487.396 31.3821ZM487.32 31.2285C486.951 30.3335 486.328 29.2476 486.045 28.739L472.071 36.5316C472.293 36.9302 472.436 37.1881 472.543 37.3871C472.593 37.4805 472.615 37.5242 472.619 37.5333C472.628 37.5504 472.588 37.4714 472.529 37.3285L487.32 31.2285ZM486.045 28.739C485.19 27.2058 484.111 25.2438 483.431 23.4401C483.088 22.5293 482.999 22.0441 482.988 21.9331C482.964 21.6905 483.187 23.008 482.095 24.5687L468.984 15.3974C466.908 18.3648 466.874 21.5992 467.068 23.5326C467.276 25.5976 467.881 27.5476 468.458 29.0801C469.62 32.1632 471.284 35.1206 472.071 36.5316L486.045 28.739ZM482.094 24.5696C481.685 25.1546 481.194 25.6278 480.679 25.9795C480.173 26.3243 479.735 26.491 479.472 26.5667C479.006 26.7004 479.147 26.5363 480.363 26.6871L482.333 10.8089C477.563 10.2171 472.142 10.8841 468.985 15.3965L482.094 24.5696ZM476.645 10.8941C479.994 10.968 481.963 12.0893 483.39 13.912L495.99 4.05112C491.285 -1.96036 484.595 -4.93424 476.998 -5.10204L476.645 10.8941ZM483.389 13.9117C482.982 13.3906 482.764 12.9326 482.656 12.6651C482.546 12.3926 482.508 12.2158 482.501 12.1824C482.492 12.1367 482.537 12.3544 482.528 12.9153C482.511 14.0339 482.295 15.7738 481.745 18.0173C480.652 22.4815 478.462 28.035 475.205 33.1609L488.709 41.7423C492.946 35.074 495.799 27.8947 497.286 21.8236C498.027 18.7994 498.485 15.8211 498.526 13.1627C498.547 11.8351 498.467 10.3997 498.178 8.98516C497.908 7.65934 497.341 5.77822 495.99 4.05148L483.389 13.9117ZM488.243 32.5036C488.155 32.3916 488.066 32.2793 487.975 32.1653L475.485 42.1651C475.549 42.2458 475.611 42.3234 475.671 42.3995L488.243 32.5036ZM487.984 32.1765C487.95 32.134 487.909 32.0837 487.884 32.0519L475.386 42.0413C475.424 42.0896 475.447 42.1185 475.476 42.1539L487.984 32.1765ZM488.478 41.1902C492.004 35.3661 491.115 29.5555 490.799 26.9235L474.913 28.8317C475.271 31.8114 475.138 32.33 474.791 32.903L488.478 41.1902ZM490.798 26.9223C490.643 25.6288 490.606 25.1745 490.615 24.8772L474.624 24.3571C474.567 26.1027 474.792 27.8235 474.913 28.8329L490.798 26.9223ZM490.616 24.8714C490.633 24.3338 490.7 23.8494 490.842 22.9258L475.029 20.4896C474.894 21.3619 474.675 22.7345 474.624 24.3629L490.616 24.8714ZM490.842 22.9247C491.011 21.8316 491.304 20.0107 491.226 17.8233L475.236 18.3893C475.254 18.9015 475.201 19.3705 475.029 20.4907L490.842 22.9247ZM490.989 20.0603C491.269 18.9469 491.322 17.8585 491.228 16.8505L475.298 18.3473C475.24 17.7363 475.264 16.9826 475.474 16.1523L490.989 20.0603ZM491.227 16.8485C491.031 14.7606 490.129 12.4353 489.238 10.5983C488.219 8.49995 486.735 6.05768 484.719 3.71148L472.582 14.1373C473.579 15.2976 474.339 16.5453 474.843 17.5839C475.093 18.0983 475.251 18.5022 475.335 18.7517C475.457 19.1131 475.352 18.9238 475.298 18.3493L491.227 16.8485ZM484.719 3.71114C482.508 1.13802 479.187 -1.85992 474.549 -3.90609L468.09 10.7323C470.014 11.5812 471.498 12.8756 472.583 14.1376L484.719 3.71114ZM472.943 11.2466C473.928 11.0425 475.236 10.8627 476.643 10.894L476.999 -5.10201C474.085 -5.16687 471.534 -4.80121 469.696 -4.42044L472.943 11.2466ZM440.043 39.0922C440 39.1443 440.707 38.273 442.325 37.8601C443.121 37.6568 443.911 37.6276 444.628 37.7135C445.314 37.7957 445.833 37.9792 445.82 37.9747L440.762 53.1543C441.387 53.3624 443.532 54.065 446.282 53.3629C448.887 52.6981 450.874 51.0912 452.344 49.3234L440.043 39.0922ZM445.822 37.9756C447.122 38.409 447.655 39.0975 447.523 38.9492C447.462 38.8804 447.187 38.5381 446.758 37.7555C445.902 36.1969 444.869 33.7026 443.812 30.2409L428.509 34.9118C429.744 38.9571 431.156 42.5833 432.732 45.4551C433.519 46.8878 434.457 48.3382 435.585 49.6018C436.641 50.7859 438.34 52.3463 440.759 53.1534L445.822 37.9756ZM443.812 30.2409C442.907 27.2735 442.18 24.2642 441.672 21.789C441.418 20.5553 441.226 19.4881 441.096 18.6579C441.031 18.2426 440.984 17.9077 440.954 17.6552C440.921 17.3816 440.916 17.2846 440.918 17.3179L424.938 18.1172C425.076 20.8835 426.438 28.1252 428.509 34.9119L443.812 30.2409ZM440.918 17.3181C440.807 15.1013 441.054 13.7376 441.315 12.9876C441.438 12.6333 441.553 12.4487 441.61 12.3683C441.663 12.2954 441.698 12.2662 441.729 12.2442L432.474 -0.806992C426.147 3.67973 424.59 11.167 424.938 18.117L440.918 17.3181ZM441.729 12.2442C441.984 12.0633 443.025 11.6299 445.388 11.7995C447.557 11.9551 449.734 12.5426 451.075 12.9793L456.032 -2.23321C454.083 -2.86829 450.524 -3.87322 446.533 -4.1595C442.737 -4.43183 437.197 -4.15649 432.474 -0.807014L441.729 12.2442ZM447.942 -0.329297C447.977 -0.363358 448.003 -0.387695 448.011 -0.395304C448.014 -0.398103 448.022 -0.405896 447.997 -0.382583C447.981 -0.367481 447.944 -0.332695 447.901 -0.291116C447.856 -0.248165 447.796 -0.18924 447.726 -0.118817L459.094 11.1401C459.048 11.1869 459.011 11.2226 458.99 11.2426C458.971 11.2612 458.958 11.2733 458.966 11.2657C458.968 11.2641 458.969 11.2625 458.973 11.2593C458.976 11.2565 458.98 11.2523 458.985 11.2479C458.994 11.2391 459.008 11.2258 459.025 11.2104C459.057 11.18 459.106 11.1328 459.164 11.0754L447.942 -0.329297ZM447.725 -0.118139C443.473 4.17684 441.707 9.60218 440.921 13.3774C440.111 17.2739 440.142 20.4082 440.157 21.0279L456.152 20.657C456.153 20.7075 456.115 18.9012 456.586 16.6366C457.082 14.2509 457.951 12.2949 459.095 11.1394L447.725 -0.118139ZM440.154 20.8258C440.153 21.3522 440.193 21.9645 440.212 22.2737L456.184 21.3278C456.17 21.1012 456.162 20.963 456.157 20.8558C456.155 20.807 456.154 20.7839 456.154 20.7787C456.153 20.7722 456.155 20.8028 456.154 20.859L440.154 20.8258ZM440.212 22.2741C440.302 23.792 440.422 26.022 440.079 28.4754L455.925 30.691C456.505 26.5419 456.279 22.9417 456.184 21.3274L440.212 22.2741ZM440.079 28.4749C439.323 33.88 440.986 39.3561 444.82 43.3565L456.371 32.2855C456.051 31.9508 455.822 31.4217 455.925 30.6915L440.079 28.4749ZM444.821 43.3575C445.229 43.7831 445.647 44.1748 446.069 44.5353L456.465 32.3732C456.423 32.3372 456.392 32.3075 456.37 32.2845L444.821 43.3575ZM445.42 32.9942C444.437 34.0466 442.315 36.359 440.042 39.0939L452.346 49.3217C454.35 46.9099 456.247 44.8427 457.114 43.9144L445.42 32.9942ZM457.736 30.9766C457.75 30.9915 457.764 31.0095 457.775 31.0286C457.786 31.0473 457.792 31.0615 457.794 31.0682C457.796 31.0747 457.794 31.0703 457.792 31.0529C457.791 31.0357 457.79 31.0024 457.797 30.9525L441.951 28.7367C441.279 33.5429 442.739 38.4529 446.185 42.048L457.736 30.9766ZM457.797 30.9522C458.403 26.621 458.171 22.9034 458.071 21.2155L442.099 22.1613C442.192 23.7367 442.321 26.0935 441.951 28.737L457.797 30.9522ZM458.071 21.2161C458.056 20.9606 458.048 20.8294 458.044 20.7413L442.061 21.463C442.071 21.6907 442.087 21.9597 442.099 22.1607L458.071 21.2161ZM455.359 27.0885C455.273 27.1655 455.199 27.2264 455.144 27.2707C455.088 27.3156 455.042 27.3509 455.007 27.3765C454.94 27.4261 454.898 27.4546 454.886 27.4626C454.864 27.477 454.896 27.4551 454.983 27.4068C455.067 27.3608 455.177 27.3039 455.307 27.2436C455.437 27.1835 455.572 27.1263 455.707 27.0759C455.842 27.0252 455.96 26.987 456.058 26.9601C456.157 26.9328 456.212 26.9234 456.222 26.9218C456.235 26.9199 456.167 26.9316 456.03 26.9307C455.894 26.9298 455.645 26.9162 455.313 26.8403L458.887 11.2445C455.262 10.4139 451.878 11.4227 450.083 12.0967C448.257 12.7823 446.151 13.8701 444.746 15.1158L455.359 27.0885ZM455.314 26.8404C454.489 26.6515 453.44 26.1573 452.579 25.1945C451.783 24.3051 451.552 23.4678 451.496 23.2084L467.134 19.8259C466.777 18.1738 466.032 16.2352 464.502 14.5248C462.906 12.741 460.9 11.7058 458.886 11.2444L455.314 26.8404ZM451.495 23.2079C452.125 26.1209 452.062 27.6959 451.947 28.4993C451.839 29.2559 451.649 29.732 451.139 30.8638L465.73 37.4304C466.307 36.1474 467.336 33.9136 467.786 30.7614C468.23 27.656 468.063 24.1234 467.134 19.8264L451.495 23.2079ZM451.14 30.8623C450.935 31.3183 450.609 32.0335 450.319 32.815L465.317 38.3879C465.388 38.1962 465.486 37.971 465.729 37.4319L451.14 30.8623ZM450.321 32.81L450.181 33.1861L465.175 38.7689L465.315 38.3929L450.321 32.81ZM450.182 33.182C449.87 34.0197 449.354 35.3707 449.016 36.759L464.562 40.545C464.633 40.2541 464.777 39.8371 465.174 38.773L450.182 33.182ZM456.813 30.652C457.336 30.6536 457.643 30.8791 457.737 30.9773L446.185 42.0474C448.912 44.8935 452.682 46.6394 456.764 46.6519L456.813 30.652ZM454.173 38.4746C454.408 38.5333 454.599 38.604 454.759 38.6751C454.901 38.7382 455.151 38.8601 455.48 39.0843L446.465 52.303C447.553 53.0449 448.897 53.6481 450.295 53.9974L454.173 38.4746ZM454.381 52.9314C454.109 53.0592 453.918 53.1229 453.848 53.1446C453.776 53.1671 453.794 53.1572 453.93 53.1292L450.703 37.4581C449.594 37.6865 448.537 37.998 447.565 38.4558L454.381 52.9314ZM453.93 53.1292C455.701 52.7645 457.762 52.2737 459.637 51.2203C461.829 49.9891 463.076 48.3763 463.705 47.5765L451.136 37.6769C451.007 37.8398 450.944 37.9171 450.908 37.9598C450.877 37.9969 450.905 37.9609 450.978 37.8884C451.057 37.8102 451.176 37.7003 451.333 37.58C451.491 37.4585 451.651 37.3547 451.801 37.2706C452.091 37.1078 452.234 37.0806 452.046 37.1384C451.955 37.1664 451.805 37.2086 451.577 37.2643C451.348 37.32 451.063 37.3839 450.703 37.458L453.93 53.1292ZM463.704 47.5788C463.962 47.2513 464.127 47.0432 464.361 46.7826L452.44 36.1097C451.843 36.7768 451.409 37.3304 451.137 37.6746L463.704 47.5788ZM465.556 45.0239C465.302 45.5315 464.996 46.0079 464.645 46.4461C464.333 46.8357 464.034 47.1262 464.063 47.0976L452.739 35.7935C452.768 35.765 452.468 36.0557 452.156 36.4455C451.805 36.8839 451.499 37.3605 451.245 37.8685L465.556 45.0239ZM464.367 46.7753C464.349 46.795 462.964 48.4571 460.29 48.8428C458.972 49.0331 457.911 48.8239 457.323 48.6605C456.867 48.5338 456.502 48.3696 456.751 48.4729L462.88 33.6935C462.873 33.6903 462.28 33.4316 461.607 33.2447C460.802 33.0211 459.536 32.786 458.005 33.0069C454.908 33.4539 453.071 35.4035 452.435 36.1158L464.367 46.7753ZM456.756 48.4749C455.299 47.872 454.469 46.9674 454.087 46.4762C453.651 45.9154 453.317 45.2744 453.11 44.5525L468.492 40.1479C468.121 38.8523 467.502 37.6639 466.719 36.656C465.989 35.7178 464.748 34.4665 462.875 33.6914L456.756 48.4749ZM453.111 44.5548C453.017 44.2297 452.862 43.5898 452.878 42.7381C452.895 41.8638 453.109 40.3714 454.17 38.8865L467.191 48.1844C469.767 44.5771 468.673 40.7815 468.491 40.1456L453.111 44.5548ZM454.17 38.8858C454.139 38.9288 454.136 38.9255 454.169 38.8943C454.202 38.8625 454.257 38.8158 454.334 38.7656C454.411 38.7156 454.492 38.6732 454.573 38.64C454.652 38.6074 454.718 38.5888 454.764 38.5787C454.85 38.5596 454.845 38.5742 454.723 38.5674C454.599 38.5605 454.414 38.5349 454.176 38.4753L450.292 53.9967C454.166 54.9661 461.965 55.5006 467.19 48.1851L454.17 38.8858ZM468.465 55.0774C468.133 55.1487 468.25 55.0728 468.67 55.1363C469.148 55.2085 469.731 55.4187 470.272 55.806C470.772 56.1641 471.018 56.5168 471.08 56.6132C471.128 56.6865 471.072 56.6178 470.924 56.248L456.069 62.1904C456.686 63.732 458.001 66.6998 460.96 68.817C464.296 71.205 468.189 71.4997 471.818 70.7223L468.465 55.0774ZM470.925 56.2488C471.217 56.9796 471.158 57.246 471.037 56.1759C470.95 55.4131 470.87 54.3297 470.81 52.9562C470.691 50.2253 470.668 46.6799 470.773 42.9085L454.779 42.4607C454.665 46.5391 454.687 50.4728 454.825 53.6526C454.894 55.2345 454.996 56.7144 455.138 57.9731C455.245 58.9245 455.461 60.6706 456.069 62.1896L470.925 56.2488ZM470.773 42.9051C470.801 41.8943 470.656 40.934 470.39 40.0576L455.081 44.7113C454.873 44.0244 454.757 43.2659 454.779 42.4641L470.773 42.9051ZM470.662 41.3009C470.586 40.7427 470.469 40.1833 470.309 39.627L454.928 44.0324C454.875 43.8489 454.836 43.66 454.809 43.468L470.662 41.3009ZM470.31 39.6276C469.424 36.5345 467.164 33.4215 463.602 31.9456L457.477 46.7265C456.597 46.3618 456.019 45.8445 455.67 45.426C455.313 44.998 455.069 44.5267 454.928 44.0318L470.31 39.6276ZM463.601 31.9452C463.169 31.7662 460.263 30.4279 456.643 31.3537L460.608 46.8548C458.662 47.3523 457.15 46.5912 457.477 46.7268L463.601 31.9452ZM466.399 40.9921C466.443 40.8145 466.559 40.4677 466.945 39.4341L451.954 33.8416C451.668 34.6076 451.166 35.9224 450.851 37.2164L466.399 40.9921ZM466.947 39.4284L467.088 39.0498L452.093 33.4687L451.952 33.8473L466.947 39.4284ZM467.089 39.0475C467.137 38.9181 467.219 38.7285 467.454 38.2061L452.863 31.6395C452.677 32.0526 452.361 32.747 452.092 33.471L467.089 39.0475ZM467.453 38.2064C468.062 36.8549 469.141 34.5034 469.634 31.1785C470.123 27.8871 469.989 24.0808 468.982 19.4264L453.344 22.8079C454.028 25.9716 453.96 27.8048 453.808 28.83C453.661 29.8217 453.392 30.4639 452.863 31.6392L467.453 38.2064ZM468.982 19.4261C468.323 16.3792 466.681 13.3161 463.632 11.2546C460.659 9.24346 457.302 8.83148 454.385 9.13354L456.034 25.0484C456.323 25.0184 455.626 25.1554 454.669 24.5083C453.638 23.8108 453.369 22.9268 453.344 22.8081L468.982 19.4261ZM454.386 9.13345C451.038 9.47992 448.258 10.7547 447.035 11.3745L454.27 25.6451C454.472 25.543 454.794 25.394 455.165 25.265C455.551 25.1309 455.851 25.0673 456.033 25.0485L454.386 9.13345ZM447.036 11.374C446.75 11.5192 446.483 11.6618 446.231 11.8027L454.031 25.7724C454.101 25.7334 454.179 25.6916 454.27 25.6456L447.036 11.374ZM458.103 19.4487C458.195 18.3452 458.41 16.8649 458.864 15.4367C459.331 13.9662 459.909 13.0029 460.44 12.4673L449.078 1.20183C443.474 6.85415 442.422 14.9402 442.158 18.1264L458.103 19.4487ZM460.44 12.4672C460.858 12.0457 461.542 11.5827 463.239 11.6108L463.504 -4.38703C458.133 -4.47579 453.016 -2.76936 449.078 1.20188L460.44 12.4672ZM463.24 11.6108C467.19 11.6755 469.656 13.6056 471.213 15.445L483.426 5.10909C479.943 0.992983 473.479 -4.22362 463.502 -4.38705L463.24 11.6108ZM471.213 15.4447C472.643 17.1351 473.36 18.7979 473.554 19.3743L488.718 14.2691C487.973 12.0576 486.339 8.55104 483.426 5.10935L471.213 15.4447ZM481.945 8.86275C477.556 8.41654 471.221 8.90184 467.435 14.3132L480.545 23.4849C480.271 23.8769 479.936 24.1942 479.597 24.423C479.27 24.6434 479.017 24.7301 478.928 24.7558C478.847 24.7794 478.906 24.7517 479.155 24.7375C479.403 24.7234 479.786 24.7258 480.327 24.7807L481.945 8.86275ZM467.435 14.3132C465.473 17.118 465.056 20.176 465.135 22.5551C465.213 24.9134 465.788 27.1249 466.397 28.9076C467.604 32.4437 469.48 35.7682 470.419 37.4522L484.394 29.6597C483.364 27.8144 482.209 25.7022 481.539 23.7381C481.208 22.7707 481.133 22.2162 481.126 22.0231C481.12 21.8507 481.184 22.5719 480.545 23.4848L467.435 14.3132ZM470.42 37.4531C470.608 37.7907 470.748 38.041 470.852 38.2342C470.876 38.2786 470.895 38.3136 470.909 38.3404C470.916 38.3536 470.921 38.3637 470.925 38.3711C470.927 38.3747 470.928 38.3774 470.929 38.3793C470.93 38.3813 470.93 38.3822 470.93 38.3821C470.93 38.3821 470.93 38.3809 470.929 38.3786C470.928 38.3764 470.926 38.3728 470.923 38.3679C470.919 38.3586 470.911 38.3422 470.9 38.3197C470.883 38.2836 470.838 38.187 470.781 38.0501L485.572 31.9486C485.241 31.146 484.58 29.9933 484.393 29.6589L470.42 37.4531ZM470.782 38.0506C471.887 40.7292 473.344 42.5166 474.007 43.3451L486.499 33.3481C485.951 32.6625 485.749 32.3761 485.572 31.9481L470.782 38.0506ZM474.008 43.3461C474.056 43.4065 474.094 43.4533 474.129 43.4979C474.164 43.5414 474.189 43.5733 474.208 43.5978C474.227 43.6224 474.235 43.6327 474.234 43.6322C474.234 43.6322 474.219 43.612 474.194 43.5757L487.318 34.4241C486.998 33.9643 486.631 33.5127 486.499 33.347L474.008 43.3461ZM478.539 31.3132C477.704 31.5539 475.089 32.3129 472.921 34.736C470.578 37.3546 469.79 40.6772 469.952 43.9713L485.933 43.1859C485.924 43.0147 485.96 43.2406 485.819 43.7101C485.666 44.219 485.358 44.8307 484.845 45.4047C483.86 46.5051 482.739 46.7541 482.973 46.6866L478.539 31.3132ZM469.967 42.9486C469.844 44.5073 468.87 52.623 468.405 55.3181L484.172 58.0386C484.726 54.8262 485.758 46.2215 485.917 44.2086L469.967 42.9486ZM468.404 55.319C468.353 55.6176 468.306 55.8216 468.271 55.9534C468.236 56.0843 468.218 56.1194 468.232 56.0866C468.247 56.0502 468.296 55.9421 468.393 55.792C468.492 55.6379 468.623 55.4696 468.786 55.3054C468.947 55.1417 469.105 55.0175 469.236 54.9299C469.363 54.845 469.442 54.8094 469.443 54.8089C469.444 54.8087 469.426 54.8168 469.386 54.8316C469.345 54.8464 469.286 54.8669 469.204 54.8919C469.036 54.943 468.797 55.0063 468.464 55.0776L471.819 70.7221C474.366 70.1759 477.58 69.1698 480.168 66.5502C482.805 63.8805 483.725 60.6258 484.172 58.0378L468.404 55.319ZM484.246 35.6483C484.379 35.5865 484.414 35.5824 484.319 35.6117C484.234 35.6377 484.092 35.6759 483.897 35.7167C483.493 35.8006 483.021 35.8621 482.58 35.8828L483.33 51.8652C485.682 51.7548 488.63 51.253 490.983 50.1606L484.246 35.6483ZM482.58 35.8828C482.085 35.906 481.954 35.865 482.118 35.8932C482.195 35.9064 482.429 35.9508 482.774 36.0705C482.947 36.1308 483.205 36.23 483.515 36.3843C483.79 36.521 484.306 36.7994 484.886 37.2728L474.772 49.6704C475.9 50.5908 477.034 51.0145 477.516 51.1819C478.167 51.4087 478.809 51.5588 479.399 51.6605C480.588 51.8655 481.906 51.932 483.329 51.8652L482.58 35.8828ZM487.82 43.0825C487.8 42.6815 488.024 44.5431 486.425 46.4788C484.888 48.3397 482.755 48.7116 483.583 48.4791L479.258 33.0748C479.212 33.0875 476.229 33.6979 474.088 36.2905C471.885 38.9577 471.75 42.0441 471.839 43.8607L487.82 43.0825ZM483.59 48.4771C483.668 48.455 484.054 48.3496 484.462 48.207L479.179 33.1042C479.228 33.0871 479.267 33.0743 479.295 33.0656C479.321 33.0571 479.339 33.0517 479.344 33.0502C479.349 33.0488 479.346 33.0497 479.329 33.0545C479.321 33.0568 479.311 33.0597 479.298 33.0634C479.283 33.0675 479.27 33.0713 479.251 33.0768L483.59 48.4771ZM476.773 46.8623C477.059 47.095 477.361 47.317 477.679 47.5268L486.491 34.1721C486.617 34.2548 486.743 34.347 486.868 34.4488L476.773 46.8623ZM477.678 47.5262C480.119 49.1374 482.813 49.6023 484.977 49.6886C487.21 49.7777 489.557 49.49 491.88 49.0106L488.646 33.3409C487.085 33.6631 486.114 33.7213 485.615 33.7013C485.382 33.6921 485.365 33.6696 485.504 33.7061C485.646 33.7436 486.021 33.8616 486.492 34.1727L477.678 47.5262ZM491.928 49.0006C491.905 49.0054 491.887 49.0092 491.875 49.0117C491.863 49.0141 491.854 49.0157 491.853 49.016C491.853 49.0161 491.852 49.0161 491.855 49.0157C491.856 49.0154 491.86 49.0147 491.864 49.0139C491.872 49.0122 491.888 49.0091 491.907 49.0052L488.704 33.329C488.716 33.3265 488.725 33.3248 488.726 33.3246C488.727 33.3244 488.727 33.3244 488.725 33.3248C488.723 33.3251 488.72 33.3259 488.715 33.3267C488.701 33.3296 488.655 33.3388 488.598 33.3508L491.928 49.0006ZM484.841 35.3239C484.925 35.2461 484.917 35.2656 484.799 35.3442C484.689 35.4178 484.505 35.5279 484.245 35.6485L490.983 50.1604C492.976 49.2351 494.59 48.1133 495.77 47.0103L484.841 35.3239Z" fill="#1864AB" fill-opacity="0.5" mask="url(#path-11-inside-1_0_1)"/>
<path d="M849.889 19.9996L851.27 20.9996C853.672 22.937 855.053 25.1244 855.353 27.6243C857.935 27.1243 861.238 27.4993 862.679 28.4993L864 29.3118L863.76 29.8117C863.339 30.7492 863.219 30.9992 863.159 31.1242C860.817 35.8115 856.194 35.874 854.032 35.8115C848.568 49.4984 836.918 57.0606 821.186 57.0606C813.92 57.0606 808.395 54.7482 804.672 50.1859C799.748 44.1862 799.748 36.374 800.169 33.8741L800.289 33.3741H843.704C845.985 33.3741 847.727 32.7491 848.568 32.2491C847.667 30.8742 847.367 29.3118 847.307 28.4368C847.126 25.9369 847.727 23.312 848.928 21.4371L849.889 19.9996ZM811.578 25.8744V32.1241H804.972V25.8744H811.578ZM819.384 25.8744V32.1241H812.779V25.8744H819.384ZM827.19 25.8744V32.1241H820.585V25.8744H827.19ZM834.997 25.8744V32.1241H828.391V25.8744H834.997ZM842.803 25.8744V32.1241H836.198V25.8744H842.803ZM834.997 18.3747V24.6244H828.391V18.3747H834.997ZM827.19 18.3747V24.6244H820.585V18.3747H827.19ZM819.384 18.3747V24.6244H812.779V18.3747H819.384ZM834.997 10.875V17.1247H828.391V10.875H834.997Z" fill="#1864AB" fill-opacity="0.5"/>
<path d="M199.29 34.9087C199.29 34.9087 197.648 35.8642 200.461 36.1872C203.868 36.5762 205.609 36.5202 209.363 35.8107C209.363 35.8107 210.353 36.4292 211.731 36.9652C203.313 40.5717 192.679 36.7562 199.29 34.9087ZM198.261 30.2012C198.261 30.2012 196.419 31.5657 199.233 31.8567C202.873 32.2322 205.747 32.2632 210.723 31.3052C210.723 31.3052 211.409 32.0032 212.491 32.3837C202.315 35.3607 190.98 32.6182 198.261 30.2012Z" fill="#1864AB" fill-opacity="0.5"/>
<path d="M206.933 22.2155C209.008 24.6045 206.389 26.7525 206.389 26.7525C206.389 26.7525 211.655 24.034 209.237 20.6285C206.977 17.454 205.246 15.8775 214.622 10.4395C214.623 10.4395 199.903 14.1145 206.933 22.2155Z" fill="#1864AB" fill-opacity="0.5"/>
<path d="M218.066 38.3904C218.066 38.3904 219.282 39.3929 216.727 40.1679C211.869 41.6394 196.505 42.0834 192.238 40.2264C190.705 39.5589 193.581 38.6329 194.486 38.4384C195.429 38.2339 195.968 38.2714 195.968 38.2714C194.262 37.0699 184.941 40.6309 191.234 41.6524C208.396 44.4339 222.517 40.3994 218.066 38.3904ZM200.081 25.3234C200.081 25.3234 192.267 27.1799 197.314 27.8549C199.446 28.1399 203.693 28.0744 207.652 27.7424C210.887 27.4709 214.133 26.8904 214.133 26.8904C214.133 26.8904 212.993 27.3794 212.168 27.9424C204.231 30.0299 188.901 29.0574 193.315 26.9234C197.046 25.1179 200.081 25.3234 200.081 25.3234ZM214.1 33.1584C222.168 28.9674 218.437 24.9394 215.834 25.4819C215.197 25.6149 214.911 25.7299 214.911 25.7299C214.911 25.7299 215.149 25.3579 215.6 25.1984C220.751 23.3884 224.712 30.5389 213.939 33.3709C213.939 33.3709 214.063 33.2589 214.1 33.1584Z" fill="#1864AB" fill-opacity="0.5"/>
<path d="M209.237 1.65674C209.237 1.65674 213.704 6.12624 204.999 12.9977C198.018 18.5112 203.407 21.6542 204.996 25.2467C200.921 21.5697 197.932 18.3327 199.937 15.3207C202.881 10.8997 211.039 8.75524 209.237 1.65674Z" fill="#1864AB" fill-opacity="0.5"/>
<path d="M200.875 44.5196C208.617 45.0146 220.509 44.2441 220.791 40.5806C220.791 40.5806 220.25 41.9691 214.391 43.0711C207.782 44.3151 199.63 44.1706 194.796 43.3726C194.796 43.3726 195.786 44.1926 200.875 44.5196Z" fill="#1864AB" fill-opacity="0.5"/>
<path d="M220.433 51.0903H220.197V50.9583H220.832V51.0903H220.597V51.7488H220.433L220.433 51.0903ZM221.701 51.1233H221.698L221.464 51.7488H221.356L221.123 51.1233H221.121V51.7488H220.965V50.9583H221.193L221.409 51.5178L221.625 50.9583H221.852V51.7488H221.701V51.1233ZM199.606 58.5183C198.876 59.1513 198.104 59.5073 197.41 59.5073C196.423 59.5073 195.888 58.9143 195.888 57.9648C195.888 56.9373 196.461 56.1848 198.757 56.1848H199.605V58.5183H199.606ZM201.621 60.7923V53.7538C201.621 51.9543 200.595 50.7673 198.123 50.7673C196.68 50.7673 195.415 51.1243 194.386 51.5783L194.682 52.8248C195.492 52.5273 196.54 52.2513 197.568 52.2513C198.993 52.2513 199.605 52.8248 199.605 54.0118V54.9013H198.893C195.433 54.9013 193.871 56.2438 193.871 58.2628C193.871 60.0023 194.9 60.9908 196.838 60.9908C198.083 60.9908 199.013 60.4768 199.882 59.7243L200.04 60.7928H201.621V60.7923ZM208.347 60.7923H205.834L202.808 50.9478H205.004L206.882 56.9973L207.299 58.8148C208.247 56.1858 208.919 53.5168 209.255 50.9483H211.391C210.819 54.1888 209.789 57.7473 208.347 60.7923ZM217.991 58.5183C217.259 59.1513 216.486 59.5073 215.795 59.5073C214.807 59.5073 214.272 58.9143 214.272 57.9648C214.272 56.9373 214.847 56.1848 217.14 56.1848H217.991V58.5183H217.991ZM220.008 60.7923V53.7538C220.008 51.9543 218.978 50.7673 216.508 50.7673C215.064 50.7673 213.799 51.1243 212.771 51.5783L213.067 52.8248C213.877 52.5273 214.926 52.2513 215.954 52.2513C217.377 52.2513 217.991 52.8248 217.991 54.0118V54.9013H217.279C213.818 54.9013 212.257 56.2438 212.257 58.2628C212.257 60.0023 213.285 60.9908 215.222 60.9908C216.467 60.9908 217.396 60.4768 218.267 59.7243L218.426 60.7928H220.008V60.7923ZM191.661 62.4653C191.088 63.3048 190.159 63.9693 189.143 64.3438L188.148 63.1713C188.922 62.7743 189.584 62.1338 189.893 61.5368C190.159 61.0053 190.269 60.3218 190.269 58.6863V47.4453H192.411V58.5318C192.411 60.7193 192.237 61.6038 191.661 62.4653Z" fill="#1864AB" fill-opacity="0.5"/>
<path d="M62.08 63.0799H1.92V2.91992H62.08V63.0799ZM4.48 60.5199H59.52V5.47992H4.48V60.5199Z" fill="#1864AB" fill-opacity="0.5"/>
<path d="M20.8512 28.7634C20.8341 29.2571 20.899 29.7502 21.0432 30.2226C21.1815 30.6305 21.3572 31.0247 21.568 31.4002C21.6393 31.5112 21.6791 31.6395 21.6832 31.7714C21.6732 31.8723 21.6388 31.9693 21.5831 32.054C21.5273 32.1387 21.4519 32.2086 21.3632 32.2578L20.3392 32.9362C20.2129 33.0301 20.0612 33.0836 19.904 33.0898C19.8116 33.0859 19.721 33.0635 19.6375 33.0239C19.5539 32.9843 19.4792 32.9284 19.4176 32.8594C19.1936 32.629 19 32.3709 18.8416 32.0914C18.6752 31.8226 18.5088 31.5026 18.3296 31.1442C17.7522 31.8585 17.0202 32.4325 16.1887 32.8227C15.3573 33.213 14.448 33.4093 13.5296 33.397C12.9311 33.4343 12.3313 33.3503 11.766 33.1502C11.2007 32.95 10.6817 32.6378 10.24 32.2322C9.83242 31.8166 9.51515 31.3212 9.30809 30.7771C9.10104 30.233 9.00868 29.652 9.03681 29.0706C9.01254 28.4354 9.13369 27.8031 9.39102 27.2219C9.64834 26.6407 10.035 26.126 10.5216 25.717C11.6557 24.8149 13.081 24.3595 14.528 24.437C15.1061 24.4428 15.6833 24.4856 16.256 24.565C16.8576 24.6546 17.536 24.7698 18.1376 24.9234V23.7202C18.2226 22.7996 17.9473 21.882 17.3696 21.1602C16.6133 20.5725 15.6603 20.2976 14.7072 20.3922C14.112 20.3967 13.5193 20.4697 12.9408 20.6098C12.3387 20.7529 11.7482 20.9411 11.1744 21.173C10.9935 21.2588 10.805 21.3274 10.6112 21.3778C10.5263 21.3904 10.4401 21.3904 10.3552 21.3778C10.1248 21.3778 10.0096 21.1986 10.0096 20.8658V20.0594C9.9938 19.8604 10.0337 19.661 10.1248 19.4834C10.2465 19.3362 10.3996 19.2181 10.5728 19.1378C11.2391 18.8257 11.9334 18.5771 12.6464 18.3954C13.4834 18.1855 14.3435 18.0823 15.2064 18.0882C16.7442 17.9374 18.2797 18.3971 19.4816 19.3682C19.9685 19.9111 20.3399 20.5474 20.5732 21.2383C20.8064 21.9293 20.8967 22.6605 20.8384 23.3874L20.8512 28.7634ZM14.208 31.2466C14.7838 31.2442 15.355 31.1446 15.8976 30.9522C16.4974 30.7451 17.0318 30.383 17.4464 29.9026C17.7097 29.6037 17.9022 29.2493 18.0096 28.8658C18.1197 28.4004 18.1713 27.9231 18.1632 27.445V26.7538C17.6613 26.634 17.1526 26.5443 16.64 26.485C16.1305 26.4199 15.6176 26.3857 15.104 26.3826C14.2406 26.315 13.3806 26.5504 12.672 27.0482C12.4001 27.2772 12.1856 27.5666 12.0456 27.8933C11.9056 28.2201 11.8439 28.575 11.8656 28.9298C11.8438 29.2455 11.8858 29.5623 11.9892 29.8614C12.0926 30.1605 12.2551 30.4357 12.4672 30.6706C12.7049 30.8769 12.9811 31.034 13.2799 31.1329C13.5787 31.2318 13.8942 31.2704 14.208 31.2466V31.2466ZM27.3536 33.0002C27.1335 33.018 26.9134 32.9641 26.7264 32.8466C26.5466 32.6751 26.4256 32.4511 26.3808 32.2066L22.5408 19.5474C22.473 19.3436 22.4259 19.1334 22.4 18.9202C22.3939 18.8666 22.3999 18.8123 22.4177 18.7614C22.4355 18.7105 22.4645 18.6642 22.5027 18.626C22.5408 18.5879 22.5871 18.5589 22.638 18.5411C22.6889 18.5233 22.7432 18.5173 22.7968 18.5234H24.4096C24.6339 18.5047 24.8583 18.5585 25.0496 18.677C25.2147 18.8624 25.3293 19.0872 25.3824 19.3298L28.16 30.133L30.72 19.317C30.7613 19.073 30.8725 18.8463 31.04 18.6642C31.236 18.5455 31.4645 18.4918 31.6928 18.5106H32.9728C33.2052 18.4925 33.4375 18.5461 33.6384 18.6642C33.8013 18.8478 33.9079 19.0744 33.9456 19.317L36.5056 30.2738L39.3344 19.317C39.3912 19.0732 39.5103 18.8482 39.68 18.6642C39.8706 18.544 40.0956 18.49 40.32 18.5106H41.8432C41.898 18.5041 41.9536 18.5103 42.0056 18.5287C42.0576 18.5472 42.1047 18.5775 42.1431 18.6171C42.1815 18.6567 42.2102 18.7047 42.227 18.7573C42.2438 18.8099 42.2483 18.8656 42.24 18.9202C42.2452 19.0097 42.2452 19.0995 42.24 19.189L42.1248 19.5858L38.144 32.2322C38.0992 32.4767 37.9783 32.7007 37.7984 32.8722C37.5947 32.9942 37.3542 33.0396 37.12 33.0002H35.84C35.6057 33.0219 35.371 32.9632 35.1744 32.8338C35.0045 32.6498 34.897 32.4169 34.8672 32.1682L32.3072 21.6338L29.7472 32.1682C29.7083 32.4167 29.597 32.6482 29.4272 32.8338C29.2355 32.9632 29.0047 33.022 28.7744 33.0002H27.3536ZM48.3712 33.4354C47.5093 33.4375 46.6501 33.3387 45.8112 33.141C45.1543 33.0057 44.5176 32.7863 43.9168 32.4882C43.706 32.3911 43.5313 32.2298 43.4176 32.0274C43.3534 31.8821 43.3186 31.7255 43.3152 31.5666V30.7346C43.3152 30.4018 43.4432 30.2226 43.6864 30.2226C43.788 30.2047 43.892 30.2047 43.9936 30.2226L44.4032 30.389C44.9843 30.64 45.5889 30.833 46.208 30.965C46.8488 31.0916 47.5004 31.1559 48.1536 31.157C48.9861 31.2054 49.8154 31.0191 50.5472 30.6194C50.8073 30.4724 51.0251 30.2609 51.1798 30.0054C51.3344 29.7498 51.4208 29.4588 51.4304 29.1602C51.4356 28.95 51.3986 28.7409 51.3217 28.5453C51.2447 28.3496 51.1294 28.1714 50.9824 28.021C50.5063 27.6176 49.9468 27.3247 49.344 27.1634L46.9632 26.4082C45.9621 26.1303 45.0692 25.5544 44.4032 24.757C43.8534 24.083 43.5428 23.2457 43.52 22.3762C43.5042 21.7428 43.6542 21.1162 43.9552 20.5586C44.2619 20.0603 44.6617 19.6257 45.1328 19.2786C45.6426 18.8932 46.22 18.6067 46.8352 18.4338C47.5051 18.2418 48.1991 18.147 48.896 18.1522C49.264 18.148 49.6318 18.1694 49.9968 18.2162C50.368 18.2162 50.7264 18.3314 51.0592 18.4082C51.3751 18.4766 51.687 18.5621 51.9936 18.6642C52.2278 18.7372 52.4549 18.8315 52.672 18.9458C52.863 19.0492 53.0325 19.1883 53.1712 19.3554C53.2723 19.5158 53.3215 19.7036 53.312 19.893V20.661C53.312 21.0066 53.184 21.1858 52.9408 21.1858C52.7172 21.1554 52.5005 21.0861 52.3008 20.981C51.3082 20.549 50.2344 20.3352 49.152 20.3538C48.3988 20.3139 47.6484 20.4728 46.976 20.8146C46.7748 20.9532 46.6059 21.1336 46.4806 21.3433C46.3553 21.5531 46.2766 21.7873 46.2499 22.0302C46.2232 22.2731 46.249 22.5188 46.3257 22.7508C46.4024 22.9828 46.5282 23.1955 46.6944 23.3746C47.2251 23.8015 47.8402 24.1112 48.4992 24.2834L50.816 25.0258C51.8115 25.2736 52.7058 25.8236 53.376 26.6002C53.8803 27.2562 54.1466 28.0641 54.1312 28.8914C54.1554 29.5431 54.0283 30.1914 53.76 30.7858C53.44 31.3527 53.0038 31.8456 52.48 32.2322C51.9373 32.6477 51.3204 32.9561 50.6624 33.141C49.9186 33.3601 49.1465 33.4679 48.3712 33.461V33.4354Z" fill="#1864AB" fill-opacity="0.5"/>
<path fill-rule="evenodd" clip-rule="evenodd" d="M51.456 41.4095C46.08 45.3903 38.272 47.5023 31.5392 47.5023C22.5598 47.5451 13.8876 44.236 7.21923 38.2223C6.72003 37.7615 7.21923 37.1471 7.76963 37.4927C15.1756 41.7273 23.5585 43.9554 32.0896 43.9567C38.4732 43.9138 44.7852 42.6088 50.6624 40.1167C51.584 39.7711 52.352 40.7567 51.456 41.4095Z" fill="#1864AB" fill-opacity="0.5"/>
<path fill-rule="evenodd" clip-rule="evenodd" d="M53.76 38.8495C53.0688 37.9663 49.2032 38.4399 47.4624 38.6447C46.9376 38.7087 46.8608 38.2479 47.3344 37.9151C50.4192 35.7519 55.4624 36.3791 56.0512 37.0959C56.64 37.8127 55.8976 42.8943 53.0048 45.3135C52.5696 45.6847 52.1472 45.4927 52.3392 44.9935C52.9408 43.3679 54.3872 39.7327 53.76 38.8495Z" fill="#1864AB" fill-opacity="0.5"/>
<g clip-path="url(#clip2_0_1)">
<path d="M673.896 20.0011C673.895 18.8608 673.645 17.8532 673.139 16.9884C672.642 16.138 671.898 15.4253 670.9 14.8617C662.659 10.2299 654.411 5.61231 646.173 0.975791C643.952 -0.274056 641.799 -0.228491 639.594 1.0393C636.314 2.92493 619.893 12.0962 614.999 14.8592C612.984 15.9964 612.004 17.7368 612.003 19.999C612 29.3138 612.003 38.6284 612 47.9435C612 49.0588 612.24 50.0468 612.724 50.8986C613.221 51.7747 613.976 52.5071 614.997 53.0834C619.89 55.8463 636.314 65.0169 639.593 66.903C641.799 68.1715 643.952 68.2168 646.174 66.9665C654.412 62.3297 662.661 57.7123 670.902 53.0805C671.923 52.5045 672.678 51.7717 673.175 50.8963C673.658 50.0444 673.898 49.0564 673.899 47.9409C673.899 47.9409 673.899 29.3162 673.896 20.0011Z" fill="#1864AB" fill-opacity="0.5"/>
<path d="M643.044 33.8809L612.724 50.899C613.221 51.7751 613.975 52.5075 614.997 53.0837C619.89 55.8467 636.314 65.0173 639.593 66.9034C641.799 68.1719 643.952 68.2172 646.174 66.9669C654.412 62.3301 662.661 57.7127 670.902 53.0809C671.923 52.5049 672.678 51.772 673.175 50.8966L643.044 33.8809Z" fill="#1864AB" fill-opacity="0.5"/>
<path d="M634.064 38.9218C635.828 41.9244 639.145 43.9495 642.949 43.9495C646.778 43.9495 650.113 41.8986 651.869 38.864L643.044 33.8809L634.064 38.9218Z" fill="#1A4674"/>
<path d="M673.896 20.0015C673.895 18.8612 673.645 17.8536 673.139 16.9888L643.044 33.8808L673.175 50.8966C673.658 50.0448 673.898 49.0568 673.899 47.9413C673.899 47.9413 673.899 29.3166 673.896 20.0015Z" fill="#1864AB" fill-opacity="0.5"/>
<path d="M672.239 35.0971H669.884V37.3928H667.529V35.0971H665.175V32.8021H667.529V30.5068H669.884V32.8021H672.239V35.0971ZM663.647 35.0971H661.293V37.3928H658.938V35.0971H656.584V32.8021H658.938V30.5068H661.293V32.8021H663.647V35.0971Z" fill="#090E16"/>
<path d="M651.869 38.8637C650.113 41.8984 646.778 43.9493 642.949 43.9493C639.145 43.9493 635.828 41.9241 634.064 38.9216C633.177 37.4149 632.712 35.7081 632.714 33.9713C632.714 28.4608 637.297 23.9935 642.949 23.9935C646.73 23.9935 650.029 25.9934 651.802 28.9653L660.749 23.9432C657.193 17.9594 650.554 13.9336 642.949 13.9336C631.597 13.9336 622.394 22.9049 622.394 33.9713C622.394 37.6018 623.385 41.0065 625.116 43.9431C628.663 49.9587 635.321 54.0092 642.949 54.0092C650.592 54.0092 657.26 49.9424 660.802 43.9092L651.869 38.8637Z" fill="#090E16"/>
</g>
<defs>
<clipPath id="clip0_0_1">
<rect width="64" height="64" fill="white" transform="translate(257 1)"/>
</clipPath>
<clipPath id="clip1_0_1">
<rect width="64" height="64" fill="white" transform="translate(708 2)"/>
</clipPath>
<clipPath id="clip2_0_1">
<rect width="62" height="68" fill="white" transform="translate(612)"/>
</clipPath>
</defs>
</svg>
