<svg width="73" height="67" viewBox="0 0 73 67" fill="none" xmlns="http://www.w3.org/2000/svg">
<path fill-rule="evenodd" clip-rule="evenodd" d="M36.1802 1L3.1961 17.2848L1 42.9829L18.185 66L56.7126 65.5234L72 40.7785L69.2282 14.5243L36.1802 1Z" fill="#120A44"/>
<path d="M36.1802 1C27.545 5.26978 18.9099 9.51971 3.1961 17.2848M36.1802 1C26.7562 5.64711 17.3321 10.3141 3.1961 17.2848M3.1961 17.2848C2.47117 25.7846 1.74625 34.2646 1 42.9829M3.1961 17.2848C2.68438 23.1632 2.19399 29.0416 1 42.9829M1 42.9829C6.62883 50.5096 12.2363 58.0364 18.185 66M1 42.9829C6.39429 50.2117 11.7886 57.4207 18.185 66M18.185 66C29.6345 65.861 41.0841 65.722 56.7126 65.5234M18.185 66C29.336 65.861 40.4871 65.722 56.7126 65.5234M56.7126 65.5234C61.5526 57.6789 66.3925 49.8543 72 40.7785M56.7126 65.5234C61.8511 57.2023 67.0108 48.8812 72 40.7785M72 40.7785C70.9766 31.1467 69.9745 21.495 69.2282 14.5243M72 40.7785C70.9126 30.4714 69.8252 20.1842 69.2282 14.5243M69.2282 14.5243C62.2562 11.6844 55.2841 8.82463 36.1802 1M69.2282 14.5243C60.0814 10.7907 50.9132 7.03727 36.1802 1" stroke="#1864AB" stroke-width="2" stroke-linecap="round"/>
</svg>
