<svg width="44" height="58" viewBox="0 0 44 58" fill="none" xmlns="http://www.w3.org/2000/svg">
<path d="M17.7354 43.3265C18.8879 40.8492 26.6911 35.3643 24.6663 28.4804C22.636 21.5907 8.75819 6.41243 5.5755 2M17.7354 43.3265C18.8879 40.8492 26.6911 35.3643 24.6663 28.4804C22.636 21.5907 8.75819 6.41243 5.5755 2" stroke="#1864AB" stroke-width="4" stroke-linecap="round"/>
<path d="M5 55.9999C5.142 52.5948 5.71544 38.9831 5.8629 35.5825M5 55.9999C5.142 52.5948 5.71544 38.9831 5.8629 35.5825" stroke="white" stroke-width="4" stroke-linecap="round"/>
<path d="M17.6205 55.7652C19.6521 53.5756 25.747 47.0021 29.8102 42.6228C33.8735 38.2435 39.9684 31.67 42 29.4803M17.6205 55.7652C19.6521 53.5756 25.747 47.0021 29.8102 42.6228C33.8735 38.2435 39.9684 31.67 42 29.4803" stroke="white" stroke-width="4" stroke-linecap="round"/>
<path d="M9.03367 22.6375C9.03367 22.8475 9.01183 23.062 8.96814 23.2676C8.92991 23.4776 8.86983 23.6832 8.78791 23.8798C8.71145 24.0809 8.60769 24.2731 8.493 24.4563C8.37831 24.6395 8.24178 24.8138 8.09432 24.9746C7.9414 25.1355 7.77756 25.2875 7.59733 25.426C7.41711 25.56 7.22596 25.6807 7.02389 25.7879C6.82182 25.8952 6.60883 25.9846 6.39037 26.0561C6.17192 26.1276 5.94254 26.1857 5.71316 26.2214C5.48378 26.2572 5.24895 26.275 5.01411 26.275C4.78473 26.275 4.54989 26.2572 4.32051 26.2214C4.09114 26.1857 3.86176 26.1276 3.6433 26.0561C3.42485 25.9846 3.20639 25.8952 3.00978 25.7879C2.80771 25.6807 2.6111 25.56 2.43634 25.426C2.25611 25.2875 2.08681 25.1355 1.93936 24.9746C1.7919 24.8138 1.65536 24.6395 1.54068 24.4563C1.42053 24.2731 1.32222 24.0809 1.2403 23.8798C1.16384 23.6832 1.10377 23.4776 1.06008 23.2676C1.02185 23.062 1 22.8475 1 22.6375C1 22.4275 1.02185 22.213 1.06008 22.0074C1.10377 21.7974 1.16384 21.5918 1.2403 21.3952C1.32222 21.1941 1.42053 21.002 1.54068 20.8188C1.65536 20.6355 1.7919 20.4613 1.93936 20.3004C2.08681 20.1395 2.25611 19.9876 2.43634 19.8491C2.6111 19.715 2.80771 19.5943 3.00978 19.4871C3.20639 19.3843 3.42485 19.2905 3.6433 19.219C3.86176 19.1475 4.09114 19.0938 4.32051 19.0536C4.54989 19.0179 4.78473 19 5.01411 19C5.24895 19 5.48378 19.0179 5.71316 19.0536C5.94254 19.0938 6.17192 19.1475 6.39037 19.219C6.60883 19.2905 6.82182 19.3843 7.02389 19.4871C7.22596 19.5943 7.41711 19.715 7.59733 19.8491C7.77756 19.9876 7.9414 20.1395 8.09432 20.3004C8.24178 20.4613 8.37831 20.6355 8.493 20.8188C8.60769 21.002 8.71145 21.1941 8.78791 21.3952C8.86983 21.5918 8.92991 21.7974 8.96814 22.0074C9.01183 22.213 9.02275 22.5303 9.03367 22.6375C9.03913 22.7448 9.03913 22.5303 9.03367 22.6375Z" fill="#120A44"/>
<path d="M9.03367 22.6375C9.03367 22.8475 9.01183 23.062 8.96814 23.2676C8.92991 23.4776 8.86983 23.6832 8.78791 23.8798C8.71145 24.0809 8.60769 24.2731 8.493 24.4563C8.37831 24.6395 8.24178 24.8138 8.09432 24.9746C7.9414 25.1355 7.77756 25.2875 7.59733 25.426C7.41711 25.56 7.22596 25.6807 7.02389 25.7879C6.82182 25.8952 6.60883 25.9846 6.39037 26.0561C6.17192 26.1276 5.94254 26.1857 5.71316 26.2214C5.48378 26.2572 5.24895 26.275 5.01411 26.275C4.78473 26.275 4.54989 26.2572 4.32051 26.2214C4.09113 26.1857 3.86176 26.1276 3.6433 26.0561C3.42485 25.9846 3.20639 25.8952 3.00978 25.7879C2.80771 25.6807 2.6111 25.56 2.43634 25.426C2.25611 25.2875 2.08681 25.1355 1.93936 24.9746C1.7919 24.8138 1.65536 24.6395 1.54068 24.4563C1.42053 24.2731 1.32222 24.0809 1.2403 23.8798C1.16384 23.6832 1.10377 23.4776 1.06008 23.2676C1.02185 23.062 1 22.8475 1 22.6375C1 22.4275 1.02185 22.213 1.06008 22.0074C1.10377 21.7974 1.16384 21.5918 1.2403 21.3952C1.32222 21.1941 1.42053 21.002 1.54068 20.8188C1.65536 20.6355 1.7919 20.4613 1.93936 20.3004C2.08681 20.1395 2.25611 19.9876 2.43634 19.8491C2.6111 19.715 2.80771 19.5943 3.00978 19.4871C3.20639 19.3843 3.42485 19.2905 3.6433 19.219C3.86176 19.1475 4.09113 19.0938 4.32051 19.0536C4.54989 19.0179 4.78473 19 5.01411 19C5.24895 19 5.48378 19.0179 5.71316 19.0536C5.94254 19.0938 6.17192 19.1475 6.39037 19.219C6.60883 19.2905 6.82182 19.3843 7.02389 19.4871C7.22596 19.5943 7.41711 19.715 7.59733 19.8491C7.77756 19.9876 7.9414 20.1395 8.09432 20.3004C8.24178 20.4613 8.37831 20.6355 8.493 20.8188C8.60769 21.002 8.71145 21.1941 8.78791 21.3952C8.86983 21.5918 8.92991 21.7974 8.96814 22.0074C9.01183 22.213 9.02275 22.5303 9.03367 22.6375ZM9.03367 22.6375C9.03914 22.7448 9.03914 22.5303 9.03367 22.6375Z" stroke="#1864AB" stroke-width="2" stroke-linecap="round"/>
<path d="M5.86047 55.0612C7.12751 53.8859 11.3109 50.0562 13.4627 48.0185C15.6145 45.9852 17.8809 43.7196 18.7657 42.8571M5.86047 55.0612C7.12751 53.8859 11.3109 50.0562 13.4627 48.0185C15.6145 45.9852 17.8809 43.7196 18.7657 42.8571" stroke="white" stroke-width="4" stroke-linecap="round"/>
<path d="M20 23C19.8286 26.6693 19.1619 41.336 19 45M20 23C19.8286 26.6693 19.1619 41.336 19 45" stroke="#1864AB" stroke-width="4" stroke-linecap="round"/>
<path d="M17.3336 54.5918C17.4319 52.8311 17.8142 45.7929 17.9071 44.0322M17.3336 54.5918C17.4319 52.8311 17.8142 45.7929 17.9071 44.0322" stroke="white" stroke-width="4" stroke-linecap="round"/>
</svg>
