<svg width="65" height="69" viewBox="0 0 65 69" fill="none" xmlns="http://www.w3.org/2000/svg">
<path fill-rule="evenodd" clip-rule="evenodd" d="M32.2162 1L2.94865 17.7858L1 44.2747L16.2486 68L50.4351 67.5087L64 42.0024L61.5405 14.9404L32.2162 1Z" fill="#120A44"/>
<path d="M32.2162 1C24.5541 5.40116 16.8919 9.78185 2.94865 17.7858M32.2162 1C23.8541 5.7901 15.4919 10.6007 2.94865 17.7858M2.94865 17.7858C2.3054 26.5472 1.66216 35.2881 1 44.2747M2.94865 17.7858C2.49459 23.8451 2.05946 29.9044 1 44.2747M1 44.2747C5.99459 52.033 10.9703 59.7913 16.2486 68M1 44.2747C5.78649 51.7259 10.573 59.1567 16.2486 68M16.2486 68C26.4081 67.8567 36.5676 67.7134 50.4351 67.5087M16.2486 68C26.1432 67.8567 36.0378 67.7134 50.4351 67.5087M50.4351 67.5087C54.7297 59.4229 59.0243 51.3575 64 42.0024M50.4351 67.5087C54.9946 58.9316 59.573 50.3544 64 42.0024M64 42.0024C63.0919 32.0742 62.2027 22.1256 61.5405 14.9404M64 42.0024C63.0351 31.3782 62.0703 20.7745 61.5405 14.9404M61.5405 14.9404C55.3541 12.0131 49.1676 9.06538 32.2162 1M61.5405 14.9404C53.4243 11.092 45.2892 7.22304 32.2162 1" stroke="#1864AB" stroke-width="2" stroke-linecap="round"/>
<path d="M34 24C33.8286 27.6693 33.1619 42.336 33 46M34 24C33.8286 27.6693 33.1619 42.336 33 46" stroke="#1864AB" stroke-width="4" stroke-linecap="round"/>
<path d="M32.3614 44.3265C33.5732 42.2089 41.7782 37.5203 39.6491 31.6358C37.5143 25.7464 22.922 12.7718 19.5755 9M32.3614 44.3265C33.5732 42.2089 41.7782 37.5203 39.6491 31.6358C37.5143 25.7464 22.922 12.7718 19.5755 9" stroke="#1864AB" stroke-width="4" stroke-linecap="round"/>
<path d="M19 56.9999C19.142 53.5948 19.7154 39.9831 19.8629 36.5825M19 56.9999C19.142 53.5948 19.7154 39.9831 19.8629 36.5825" stroke="white" stroke-width="4" stroke-linecap="round"/>
<path d="M31.6205 56.7652C33.6521 54.5756 39.747 48.0021 43.8102 43.6228C47.8735 39.2435 53.9684 32.67 56 30.4803M31.6205 56.7652C33.6521 54.5756 39.747 48.0021 43.8102 43.6228C47.8735 39.2435 53.9684 32.67 56 30.4803" stroke="white" stroke-width="4" stroke-linecap="round"/>
<path d="M26.0337 25.6375C26.0337 25.8475 26.0118 26.062 25.9681 26.2676C25.9299 26.4776 25.8698 26.6832 25.7879 26.8798C25.7115 27.0809 25.6077 27.2731 25.493 27.4563C25.3783 27.6395 25.2418 27.8138 25.0943 27.9746C24.9414 28.1355 24.7776 28.2875 24.5973 28.426C24.4171 28.56 24.226 28.6807 24.0239 28.7879C23.8218 28.8952 23.6088 28.9846 23.3904 29.0561C23.1719 29.1276 22.9425 29.1857 22.7132 29.2214C22.4838 29.2572 22.2489 29.275 22.0141 29.275C21.7847 29.275 21.5499 29.2572 21.3205 29.2214C21.0911 29.1857 20.8618 29.1276 20.6433 29.0561C20.4248 28.9846 20.2064 28.8952 20.0098 28.7879C19.8077 28.6807 19.6111 28.56 19.4363 28.426C19.2561 28.2875 19.0868 28.1355 18.9394 27.9746C18.7919 27.8138 18.6554 27.6395 18.5407 27.4563C18.4205 27.2731 18.3222 27.0809 18.2403 26.8798C18.1638 26.6832 18.1038 26.4776 18.0601 26.2676C18.0218 26.062 18 25.8475 18 25.6375C18 25.4275 18.0218 25.213 18.0601 25.0074C18.1038 24.7974 18.1638 24.5918 18.2403 24.3952C18.3222 24.1941 18.4205 24.002 18.5407 23.8188C18.6554 23.6355 18.7919 23.4613 18.9394 23.3004C19.0868 23.1395 19.2561 22.9876 19.4363 22.8491C19.6111 22.715 19.8077 22.5943 20.0098 22.4871C20.2064 22.3843 20.4248 22.2905 20.6433 22.219C20.8618 22.1475 21.0911 22.0938 21.3205 22.0536C21.5499 22.0179 21.7847 22 22.0141 22C22.2489 22 22.4838 22.0179 22.7132 22.0536C22.9425 22.0938 23.1719 22.1475 23.3904 22.219C23.6088 22.2905 23.8218 22.3843 24.0239 22.4871C24.226 22.5943 24.4171 22.715 24.5973 22.8491C24.7776 22.9876 24.9414 23.1395 25.0943 23.3004C25.2418 23.4613 25.3783 23.6355 25.493 23.8188C25.6077 24.002 25.7115 24.1941 25.7879 24.3952C25.8698 24.5918 25.9299 24.7974 25.9681 25.0074C26.0118 25.213 26.0228 25.5303 26.0337 25.6375C26.0391 25.7448 26.0391 25.5303 26.0337 25.6375Z" fill="#120A44"/>
<path d="M26.0337 25.6375C26.0337 25.8475 26.0118 26.062 25.9681 26.2676C25.9299 26.4776 25.8698 26.6832 25.7879 26.8798C25.7115 27.0809 25.6077 27.2731 25.493 27.4563C25.3783 27.6395 25.2418 27.8138 25.0943 27.9746C24.9414 28.1355 24.7776 28.2875 24.5973 28.426C24.4171 28.56 24.226 28.6807 24.0239 28.7879C23.8218 28.8952 23.6088 28.9846 23.3904 29.0561C23.1719 29.1276 22.9425 29.1857 22.7132 29.2214C22.4838 29.2572 22.2489 29.275 22.0141 29.275C21.7847 29.275 21.5499 29.2572 21.3205 29.2214C21.0911 29.1857 20.8618 29.1276 20.6433 29.0561C20.4248 28.9846 20.2064 28.8952 20.0098 28.7879C19.8077 28.6807 19.6111 28.56 19.4363 28.426C19.2561 28.2875 19.0868 28.1355 18.9394 27.9746C18.7919 27.8138 18.6554 27.6395 18.5407 27.4563C18.4205 27.2731 18.3222 27.0809 18.2403 26.8798C18.1638 26.6832 18.1038 26.4776 18.0601 26.2676C18.0218 26.062 18 25.8475 18 25.6375C18 25.4275 18.0218 25.213 18.0601 25.0074C18.1038 24.7974 18.1638 24.5918 18.2403 24.3952C18.3222 24.1941 18.4205 24.002 18.5407 23.8188C18.6554 23.6355 18.7919 23.4613 18.9394 23.3004C19.0868 23.1395 19.2561 22.9876 19.4363 22.8491C19.6111 22.715 19.8077 22.5943 20.0098 22.4871C20.2064 22.3843 20.4248 22.2905 20.6433 22.219C20.8618 22.1475 21.0911 22.0938 21.3205 22.0536C21.5499 22.0179 21.7847 22 22.0141 22C22.2489 22 22.4838 22.0179 22.7132 22.0536C22.9425 22.0938 23.1719 22.1475 23.3904 22.219C23.6088 22.2905 23.8218 22.3843 24.0239 22.4871C24.226 22.5943 24.4171 22.715 24.5973 22.8491C24.7776 22.9876 24.9414 23.1395 25.0943 23.3004C25.2418 23.4613 25.3783 23.6355 25.493 23.8188C25.6077 24.002 25.7115 24.1941 25.7879 24.3952C25.8698 24.5918 25.9299 24.7974 25.9681 25.0074C26.0118 25.213 26.0228 25.5303 26.0337 25.6375ZM26.0337 25.6375C26.0391 25.7448 26.0391 25.5303 26.0337 25.6375Z" stroke="#1864AB" stroke-width="2" stroke-linecap="round"/>
<path d="M19.8605 56.0612C21.1275 54.8859 25.3109 51.0562 27.4627 49.0185C29.6145 46.9852 31.8809 44.7196 32.7657 43.8571M19.8605 56.0612C21.1275 54.8859 25.3109 51.0562 27.4627 49.0185C29.6145 46.9852 31.8809 44.7196 32.7657 43.8571" stroke="white" stroke-width="4" stroke-linecap="round"/>
<path d="M31.3336 55.5918C31.4319 53.8311 31.8142 46.7929 31.9071 45.0322M31.3336 55.5918C31.4319 53.8311 31.8142 46.7929 31.9071 45.0322" stroke="white" stroke-width="4" stroke-linecap="round"/>
</svg>
