<svg width="431" height="594" viewBox="0 0 431 594" fill="none" xmlns="http://www.w3.org/2000/svg">
<g filter="url(#filter0_i_21_4120)">
<path fill-rule="evenodd" clip-rule="evenodd" d="M158.636 347.74C195.391 367.331 236.608 365.155 268.901 347.739V390.658L269.266 390.648V415.848H158.636V347.74Z" fill="#DEB08F"/>
<path fill-rule="evenodd" clip-rule="evenodd" d="M158.635 383.501C195.39 403.094 236.608 400.917 268.901 383.501V410.871L293.734 410.252L294.042 410.263C294.042 476.234 136.326 486.109 136.326 410.164L136.942 410.137L158.635 410.247V383.501Z" fill="#FEBF93"/>
<path fill-rule="evenodd" clip-rule="evenodd" d="M94.0671 112.373C181.781 56.5241 293.996 76.3846 331.909 113.213C342.87 139.589 343.645 165.031 340.42 192.34C347.825 187.026 356.631 188.243 363.569 193.191C366.38 215.852 373.909 260.68 340.169 262.625C328.554 407.231 115.72 425.23 86.9499 263.098C53.5099 261.944 62.5268 216.639 64.6164 194.883C72.639 188.78 81.8005 191.851 87.4874 194.582L94.0671 112.373Z" fill="#FEBF93"/>
<path fill-rule="evenodd" clip-rule="evenodd" d="M81.0387 173.614C81.4995 174.88 80.0024 176.146 75.5109 178.447C66.2151 183.09 65.4001 184.056 65.3766 191.328V191.68C65.3766 201.46 66.8737 203.991 73.3225 204.912C79.8872 205.833 84.0336 207.328 85.1858 209.169C85.6453 209.975 86.1068 213.657 86.1068 217.454C86.1068 225.624 88.6396 237.132 91.7498 243.114C100.502 260.145 123.304 268.775 150.943 265.553C164.533 263.827 172.479 261.18 181.116 255.427C194.015 246.797 200.003 235.751 200.924 218.375C201.616 207.788 201.616 207.788 205.071 206.638C209.562 205.028 220.734 205.028 225.34 206.638C228.909 207.904 228.909 207.904 228.909 216.074C228.909 225.509 231.328 236.786 234.552 243.116C243.305 260.145 266.107 268.775 293.632 265.553C307.336 263.827 315.282 261.18 323.92 255.428C336.818 246.798 342.807 235.406 343.958 217.57C344.764 205.833 344.19 206.409 356.857 204.797C363.305 203.992 364.803 201.46 364.803 191.565C364.803 183.74 363.536 182.245 352.826 177.642L346.376 174.88L336.357 171.774L328.987 170.163C324.956 169.358 319.774 168.666 317.585 168.551C315.282 168.551 309.525 166.48 303.767 163.604C294.207 158.886 293.747 158.77 282.461 158.77C269.563 158.77 260.464 161.417 253.093 167.171C250.906 168.896 246.299 171.083 243.074 171.888C239.734 172.695 233.516 174.88 229.255 176.721C218.084 181.439 212.326 181.209 198.046 175.455C191.828 172.925 185.953 170.852 185.148 170.852C184.34 170.852 181.692 169.242 179.274 167.286C171.673 161.302 163.151 158.77 150.022 158.77C138.851 158.77 138.161 159.001 128.257 163.719C121.577 166.941 116.394 168.551 113.285 168.551C110.751 168.666 105.223 169.358 101.077 170.278L81.0387 173.614ZM173.17 188.458C186.988 192.946 191.249 199.044 191.365 214.463C191.48 222.633 191.02 225.28 188.832 229.767C181.232 245.301 159.58 254.047 133.898 252.09C114.206 250.479 104.071 244.957 98.6588 232.759C95.2036 224.819 94.7434 205.833 97.9668 199.964C100.962 194.441 106.721 190.644 116.163 188.112C123.534 186.156 127.565 185.926 145.991 186.156C161.883 186.501 168.794 187.077 173.17 188.458ZM315.972 188.458C329.793 192.946 334.053 199.044 334.169 214.463C334.284 222.633 333.823 225.28 331.635 229.767C324.034 245.301 302.383 254.047 276.701 252.09C257.009 250.479 246.874 244.957 241.461 232.759C238.006 224.819 237.546 205.833 240.771 199.964C243.765 194.441 249.523 190.644 258.966 188.112C266.337 186.156 270.367 185.926 288.793 186.156C304.686 186.501 311.596 187.077 315.972 188.458Z" fill="#A66F49"/>
<path fill-rule="evenodd" clip-rule="evenodd" d="M188.369 2.95403L179.447 6.06217L183.908 4.5081L177.947 6.06217C164.529 8.82293 183.908 3.81427 164.529 8.82294C161.5 7.99999 166 7.49493 160.447 10.8948C158.143 9.28415 151.098 16.7752 149.947 16.7752C147.413 16.7752 145.947 17.5678 140.461 17.5678C138.947 20.2752 136.891 25.7375 134.587 25.7375C133.781 25.7375 141.266 13.8561 134.587 22.5168C130.21 20.5608 130.326 24.7019 127.908 25.7375C125.144 27.0034 125.947 29.7752 116.737 31.9512C108.947 41.7752 110.444 47.717 108.947 50.939C106.758 55.7716 112.359 56.2752 106.947 56.2752C97.9637 56.2752 77.9466 69.1196 94.7389 64.7752C97.0426 67.1912 98.4239 66.4205 94.7389 69.1196C81.0939 82.122 85.9879 81.622 88.5199 82.122C91.6294 86.1493 90.9402 82.9265 85.9879 85.228C89.0199 85.228 91.4459 82.6581 87.9459 88.3315C83.2932 93.1293 85.8726 97.0796 84.4907 112.269C83.1094 126.998 83.5696 168.077 85.182 172.335C85.6429 173.601 84.1457 174.866 79.6543 177.168C70.2105 181.885 69.5199 182.806 69.5199 190.401C69.5199 200.181 71.017 202.713 77.4665 203.633C84.0305 204.554 88.1763 206.049 89.3284 207.891C89.7887 208.696 90.2495 212.378 90.2495 216.176C90.2495 224.346 92.7829 235.852 95.8925 241.836C104.645 258.866 127.447 267.496 155.087 264.275C168.677 262.548 176.623 259.902 185.26 254.149C198.158 245.518 204.147 234.471 205.068 217.096C205.759 206.51 205.759 206.51 209.214 205.36C213.706 203.748 224.876 203.748 229.483 205.36C233.053 206.626 233.053 206.626 233.053 214.795C233.053 224.231 235.471 235.508 238.696 241.837C247.449 258.867 270.251 267.496 297.775 264.275C311.48 262.549 319.426 259.902 328.063 254.149C340.962 245.519 346.95 234.127 348.102 216.292C348.908 204.554 348.332 205.13 361 203.519C367.449 202.714 368.947 200.182 368.947 190.286C368.947 182.462 367.679 180.966 356.969 176.363L350.52 173.601V162.094C350.405 142.418 347.641 128.495 342.804 124.007C341.191 122.511 340.879 122.865 338 121.484C332.5 120.238 330.366 119.745 328 119.193C326.618 120.574 326.911 120.67 330.366 127.574C334.627 136.09 338.428 150.473 339.694 162.9L340.501 170.495L333.13 168.884C329.099 168.078 323.917 167.388 321.729 167.273C319.426 167.273 313.667 165.202 307.909 162.325C298.35 157.607 297.89 157.492 286.604 157.492C273.705 157.492 264.607 160.139 257.237 165.892C255.049 167.618 250.442 169.804 247.218 170.61C243.878 171.416 237.659 173.602 233.398 175.443C222.228 180.161 216.469 179.931 202.189 174.177C195.97 171.646 190.097 169.575 189.29 169.575C188.484 169.575 185.836 167.963 183.417 166.007C175.817 160.024 167.294 157.492 154.165 157.492C142.995 157.492 142.303 157.722 132.399 162.44C125.72 165.662 120.537 167.273 117.428 167.273C114.895 167.388 109.367 168.078 105.221 168.999C93.4742 171.531 94.3953 173.026 95.3164 153.695C96.0077 137.125 98.1955 123.087 100.73 118.254C103.609 112.845 119.039 75.4437 179.5 85.5C266 132.5 183.5 78.2752 224.5 82.122C253 106 270.957 122 248.5 85.5C260.247 91.8288 287.467 119.655 290 120C294.146 120.575 278.733 93.4523 280 90C282.765 82.0605 317.503 137.007 320 124.007C326.528 115.851 329.304 121.484 342.804 121.484C365.25 125.484 361.674 55.8064 359.947 53.2752C358.334 50.8586 362.106 50 357.5 50C354.506 50.1151 364.095 46.3147 361.447 46.7752C356.725 47.6957 358.371 43.2669 358.947 40.2752C361.25 28.9986 359.947 43.2752 358.947 29.2752C355.447 22.5168 349.677 26.0829 349.447 25.7375C349.447 17.5677 340.385 18.297 341.191 14.5C342.573 8.28632 326.612 10.5494 325 8.82294C323.272 7.21227 318.126 7.55704 311.447 8.82294C295.669 4.33572 299.362 14.807 295.447 8.82294C291.416 2.95468 299.247 7.32741 295.447 8.82294C293.373 9.62827 306 12.7099 286.5 4.5081C282.123 2.66716 286.5 1.57428 252 1.57433C247.969 2.26518 239.3 4.91011 235.5 2.95403C231.585 0.997944 240.5 8.82293 221.5 1.5743C216.433 2.15001 214.051 4.45086 208.177 1.5743C204.492 -0.266643 208.612 1.68944 207 1.5743C205.388 1.5743 186.977 1.68879 182.947 4.33572L188.369 2.95403ZM177.312 187.179C191.132 191.667 195.393 197.765 195.509 213.184C195.624 221.354 195.163 224.001 192.975 228.488C185.374 244.022 163.724 252.768 138.042 250.812C118.349 249.201 108.215 243.677 102.802 231.48C99.347 223.54 98.8861 204.554 102.111 198.686C105.105 193.162 110.863 189.365 120.306 186.833C127.678 184.877 131.708 184.647 150.134 184.877C166.027 185.223 172.936 185.798 177.312 187.179ZM320.116 187.179C333.935 191.667 338.197 197.765 338.312 213.184C338.427 221.354 337.966 224.001 335.778 228.488C328.177 244.022 306.527 252.768 280.845 250.812C261.152 249.201 251.018 243.677 245.605 231.48C242.15 223.54 241.689 204.554 244.914 198.686C247.908 193.162 253.666 189.365 263.109 186.833C270.481 184.877 274.511 184.647 292.937 184.877C308.83 185.223 315.739 185.798 320.116 187.179Z" fill="black"/>
<path fill-rule="evenodd" clip-rule="evenodd" d="M136.087 198.046C129.983 200.922 122.957 208.172 122.957 211.624C122.957 214.27 124.8 214.27 128.37 211.394C137.698 204.029 157.507 204.029 167.641 211.279C169.599 212.544 171.672 213.695 172.363 213.695C174.781 213.695 173.63 209.552 169.945 205.179C165.108 199.196 156.471 195.284 148.294 195.284C144.033 195.284 140.002 196.204 136.087 198.045V198.046Z" fill="#533824"/>
<path fill-rule="evenodd" clip-rule="evenodd" d="M269.677 198.046C263.573 200.922 256.548 208.172 256.548 211.624C256.548 214.27 258.391 214.27 261.961 211.394C271.289 204.029 291.097 204.029 301.232 211.279C303.189 212.544 305.262 213.695 305.954 213.695C308.372 213.695 307.22 209.552 303.535 205.179C298.698 199.196 290.061 195.284 281.884 195.284C277.623 195.284 273.593 196.204 269.677 198.045L269.677 198.046Z" fill="#533824"/>
<path fill-rule="evenodd" clip-rule="evenodd" d="M188.576 258.806C189.843 263.754 193.528 267.667 199.977 270.774C205.16 273.305 207.809 273.881 215.409 273.881C223.01 273.881 225.659 273.305 230.841 270.774C237.291 267.667 240.976 263.755 242.242 258.806L242.818 256.275H215.409H188L188.576 258.806Z" fill="#AF754C"/>
<path fill-rule="evenodd" clip-rule="evenodd" d="M180.877 306.275C182.374 315.826 189.63 325.607 198.613 330.209C205.177 333.662 217.269 334.352 224.179 331.706C234.544 327.678 243.527 316.862 245.139 306.275H180.877Z" fill="#ED8080"/>
<path fill-rule="evenodd" clip-rule="evenodd" d="M87 269.775C92 323.775 150.017 363.173 159 367.775C165.564 371.227 178.821 378.775 219.5 387.775C246.5 374.775 330 356.76 337.5 278.775L301.161 300.345L217.274 355.76L146.5 323.775L87 269.775Z" fill="#010101" fill-opacity="0.54"/>
<path fill-rule="evenodd" clip-rule="evenodd" d="M140.5 299C145.5 353 162.017 303.673 171 308.275C177.564 311.727 176.595 295.275 217.274 304.275C244.274 291.275 274.5 335.275 293 300.345L279.5 294.275L253 282.275H165.5L140.5 299Z" fill="#010101" fill-opacity="0.54"/>
<path d="M255.721 521.277L263.116 515.269C264.83 513.877 267.349 514.136 268.742 515.849C270.136 517.561 269.876 520.078 268.162 521.47L264.583 524.377L290.568 546.253C292.281 547.645 292.541 550.162 291.148 551.874C290.357 552.846 289.205 553.349 288.043 553.349C287.156 553.349 286.263 553.056 285.522 552.454L255.721 527.477C254.787 526.718 254.245 525.58 254.245 524.377C254.245 523.175 254.787 522.036 255.721 521.277Z" fill="#1864AB"/>
<path d="M288.56 484.568C290.683 484.585 292.391 486.318 292.374 488.44L292.044 549.538C292.027 551.66 290.291 553.366 288.168 553.349C287.63 553.345 287.12 553.23 286.656 553.027C285.291 552.43 284.341 551.061 284.354 549.476L284.685 488.379C284.702 486.257 286.437 484.551 288.56 484.568Z" fill="#1864AB"/>
<path d="M305.438 526.596L308.169 524.377L298.441 516.473C296.727 515.081 296.468 512.565 297.861 510.853C299.254 509.14 301.773 508.881 303.487 510.273L317.03 521.277C317.965 522.036 318.507 523.175 318.507 524.377C318.507 525.58 317.965 526.718 317.03 527.477L310.483 532.797C309.742 533.399 308.849 533.692 307.963 533.692C306.8 533.692 305.648 533.188 304.858 532.217C303.464 530.505 303.724 527.988 305.438 526.596Z" fill="#C83267"/>
<path fill-rule="evenodd" clip-rule="evenodd" d="M135.624 410.205C101.652 413.512 70.7889 426.164 45.107 447.252C23.0079 465.321 16.8426 479.682 0.6633 500.135C33.6287 534.308 77.9578 563.263 126.298 579.255C158.543 589.856 180.54 593.275 215.088 593.275C249.639 593.275 271.634 589.856 303.881 579.255C352.649 563.672 393.728 538.135 430.759 501.48C405.396 468.771 394.957 447.332 354.091 427.189C336.931 418.641 316.778 412.485 301.346 410.889L294.078 410.235L293.733 410.227L292.939 415.677C289.485 441.667 256.895 460.817 216.241 460.817C175.589 460.817 143.573 441.894 139.426 415.563C138.621 410.32 138.274 409.863 135.626 410.205H135.624Z" fill="#090E16"/>
</g>
<defs>
<filter id="filter0_i_21_4120" x="0.6633" y="0.781097" width="430.095" height="596.494" filterUnits="userSpaceOnUse" color-interpolation-filters="sRGB">
<feFlood flood-opacity="0" result="BackgroundImageFix"/>
<feBlend mode="normal" in="SourceGraphic" in2="BackgroundImageFix" result="shape"/>
<feColorMatrix in="SourceAlpha" type="matrix" values="0 0 0 0 0 0 0 0 0 0 0 0 0 0 0 0 0 0 127 0" result="hardAlpha"/>
<feOffset dy="4"/>
<feGaussianBlur stdDeviation="2"/>
<feComposite in2="hardAlpha" operator="arithmetic" k2="-1" k3="1"/>
<feColorMatrix type="matrix" values="0 0 0 0 0 0 0 0 0 0 0 0 0 0 0 0 0 0 0.25 0"/>
<feBlend mode="normal" in2="shape" result="effect1_innerShadow_21_4120"/>
</filter>
</defs>
</svg>
