<svg width="51" height="49" viewBox="0 0 51 49" fill="none" xmlns="http://www.w3.org/2000/svg">
<path d="M51 35.3889C51 38.3956 48.3135 40.8333 45 40.8333H6C2.6865 40.8333 0 38.3956 0 35.3889V8.59269C0 5.586 8.6865 0 12 0H42.9375C47.5785 0 51 3.14689 51 7.31597V35.3889Z" fill="#226699"/>
<path d="M48 40.8333C48 43.84 45.3135 46.2778 42 46.2778H9C5.6865 46.2778 3 43.84 3 40.8333V8.16667C3 2.56025 2.9685 2.72222 10.5 2.72222H42C45.3135 2.72222 48 5.15997 48 8.16667V40.8333Z" fill="#CCD6DD"/>
<path d="M45 42.1945C45 44.4498 42.9855 46.2778 40.5 46.2778H4.5C2.0145 46.2778 0 44.4498 0 42.1945V9.52779C0 7.27243 2.0145 5.44446 4.5 5.44446H40.5C42.9855 5.44446 45 7.27243 45 9.52779V42.1945Z" fill="#E1E8ED"/>
<path d="M45 43.5556C45 46.5623 42.3135 49 39 49H7.5C4.1865 49 1.5 46.5623 1.5 43.5556V13.6111C1.5 10.6044 4.1865 8.16669 7.5 8.16669H39C42.3135 8.16669 45 10.6044 45 13.6111V43.5556Z" fill="#3B88C3"/>
<path d="M42 43.5556C42 46.5623 39.3135 49 36 49H7.5C4.1865 49 1.5 46.5623 1.5 43.5556V16.3334C1.5 13.3267 4.1865 10.8889 7.5 10.8889H36.5025C39.816 10.8889 42 12.8707 42 15.8774V43.5556Z" fill="#55ACEE"/>
<path d="M7.5 8.16667C4.968 8.16667 4.9035 5.55061 6 4.42361C7.248 3.14281 9.1875 2.72222 12.657 2.72222H15V0H10.9215C4.968 0 0 3.40278 0 7.31597V43.5556C0 46.5623 2.6865 49 6 49H9V8.16667H7.5Z" fill="#226699"/>
</svg>
