<svg width="855" height="818" viewBox="0 0 855 818" fill="none" xmlns="http://www.w3.org/2000/svg">
<path d="M684.667 311.988C684.667 169.683 569.231 54.3216 426.834 54.3216C284.436 54.3216 169 169.683 169 311.988C169 454.293 284.436 569.654 426.834 569.654C569.231 569.654 684.667 454.293 684.667 311.988Z" fill="#1864AB" fill-opacity="0.2"/>
<g filter="url(#filter0_f_21_4106)">
<path d="M804.5 168.5C804.5 309.414 592.414 768 451.5 768C310.586 768 50.5 309.414 50.5 168.5C50.5 27.5857 287.71 52.2752 428.624 52.2752C569.538 52.2752 804.5 27.5858 804.5 168.5Z" fill="#1864AB" fill-opacity="0.2"/>
</g>
<g filter="url(#filter1_i_21_4106)">
<path fill-rule="evenodd" clip-rule="evenodd" d="M381.636 406.74C418.391 426.331 459.608 424.155 491.901 406.739V449.658L492.266 449.648V474.848H381.636V406.74Z" fill="#DEB08F"/>
<path fill-rule="evenodd" clip-rule="evenodd" d="M381.635 442.501C418.39 462.094 459.608 459.917 491.901 442.501V469.871L516.734 469.252L517.042 469.263C517.042 535.234 359.326 545.109 359.326 469.164L359.942 469.137L381.635 469.247V442.501Z" fill="#FEBF93"/>
<path fill-rule="evenodd" clip-rule="evenodd" d="M317.067 171.373C404.781 115.524 516.996 135.385 554.909 172.213C565.87 198.589 566.645 224.031 563.42 251.34C570.825 246.026 579.631 247.243 586.569 252.191C589.38 274.852 596.909 319.68 563.169 321.625C551.554 466.231 338.72 484.23 309.95 322.098C276.51 320.944 285.527 275.639 287.616 253.883C295.639 247.78 304.801 250.851 310.487 253.582L317.067 171.373Z" fill="#FEBF93"/>
<path fill-rule="evenodd" clip-rule="evenodd" d="M304.039 232.614C304.5 233.88 303.002 235.146 298.511 237.447C289.215 242.09 288.4 243.056 288.377 250.328V250.68C288.377 260.46 289.874 262.991 296.322 263.912C302.887 264.833 307.034 266.328 308.186 268.169C308.645 268.975 309.107 272.657 309.107 276.454C309.107 284.624 311.64 296.132 314.75 302.114C323.502 319.145 346.304 327.775 373.943 324.553C387.533 322.827 395.479 320.18 404.116 314.427C417.015 305.797 423.003 294.751 423.924 277.375C424.616 266.788 424.616 266.788 428.071 265.638C432.562 264.028 443.734 264.028 448.34 265.638C451.909 266.904 451.909 266.904 451.909 275.074C451.909 284.509 454.328 295.786 457.552 302.116C466.305 319.145 489.107 327.775 516.632 324.553C530.336 322.827 538.282 320.18 546.92 314.428C559.818 305.798 565.807 294.406 566.958 276.57C567.764 264.833 567.19 265.409 579.857 263.797C586.305 262.992 587.803 260.46 587.803 250.565C587.803 242.74 586.536 241.245 575.826 236.642L569.376 233.88L559.357 230.774L551.987 229.163C547.956 228.358 542.774 227.666 540.585 227.551C538.282 227.551 532.525 225.48 526.767 222.604C517.207 217.886 516.747 217.77 505.461 217.77C492.563 217.77 483.464 220.417 476.093 226.171C473.906 227.896 469.299 230.083 466.074 230.888C462.734 231.695 456.516 233.88 452.255 235.721C441.084 240.439 435.326 240.209 421.046 234.455C414.828 231.925 408.953 229.852 408.148 229.852C407.34 229.852 404.692 228.242 402.274 226.286C394.673 220.302 386.151 217.77 373.022 217.77C361.851 217.77 361.161 218.001 351.257 222.719C344.577 225.941 339.394 227.551 336.285 227.551C333.751 227.666 328.223 228.358 324.077 229.278L304.039 232.614ZM396.17 247.458C409.988 251.946 414.249 258.044 414.365 273.463C414.48 281.633 414.02 284.28 411.832 288.767C404.232 304.301 382.58 313.047 356.898 311.09C337.206 309.479 327.071 303.957 321.659 291.759C318.204 283.819 317.743 264.833 320.967 258.964C323.962 253.441 329.721 249.644 339.163 247.112C346.534 245.156 350.565 244.926 368.991 245.156C384.883 245.501 391.794 246.077 396.17 247.458ZM538.972 247.458C552.793 251.946 557.053 258.044 557.169 273.463C557.284 281.633 556.823 284.28 554.635 288.767C547.034 304.301 525.383 313.047 499.701 311.09C480.009 309.479 469.874 303.957 464.461 291.759C461.006 283.819 460.546 264.833 463.771 258.964C466.765 253.441 472.523 249.644 481.966 247.112C489.337 245.156 493.367 244.926 511.793 245.156C527.686 245.501 534.596 246.077 538.972 247.458Z" fill="#A66F49"/>
<path fill-rule="evenodd" clip-rule="evenodd" d="M411.369 61.954L402.447 65.0622L406.908 63.5081L400.947 65.0622C387.529 67.8229 406.908 62.8143 387.529 67.8229C384.5 67 389 66.4949 383.447 69.8948C381.143 68.2841 374.098 75.7752 372.947 75.7752C370.413 75.7752 368.947 76.5678 363.461 76.5678C361.947 79.2752 359.891 84.7375 357.587 84.7375C356.781 84.7375 364.266 72.8561 357.587 81.5168C353.21 79.5608 353.326 83.7019 350.908 84.7375C348.144 86.0034 348.947 88.7752 339.737 90.9512C331.947 100.775 333.444 106.717 331.947 109.939C329.758 114.772 335.359 115.275 329.947 115.275C320.964 115.275 300.947 128.12 317.739 123.775C320.043 126.191 321.424 125.421 317.739 128.12C304.094 141.122 308.988 140.622 311.52 141.122C314.629 145.149 313.94 141.926 308.988 144.228C312.02 144.228 314.446 141.658 310.946 147.331C306.293 152.129 308.873 156.08 307.491 171.269C306.109 185.998 306.57 227.077 308.182 231.335C308.643 232.601 307.146 233.866 302.654 236.168C293.211 240.885 292.52 241.806 292.52 249.401C292.52 259.181 294.017 261.713 300.466 262.633C307.031 263.554 311.176 265.049 312.328 266.891C312.789 267.696 313.25 271.378 313.25 275.176C313.25 283.346 315.783 294.852 318.892 300.836C327.645 317.866 350.447 326.496 378.087 323.275C391.677 321.548 399.623 318.902 408.26 313.149C421.158 304.518 427.147 293.471 428.068 276.096C428.759 265.51 428.759 265.51 432.214 264.36C436.706 262.748 447.876 262.748 452.483 264.36C456.053 265.626 456.053 265.626 456.053 273.795C456.053 283.231 458.471 294.508 461.696 300.837C470.449 317.867 493.251 326.497 520.775 323.275C534.48 321.549 542.426 318.902 551.063 313.149C563.962 304.519 569.95 293.127 571.102 275.292C571.908 263.554 571.332 264.13 584 262.519C590.449 261.714 591.947 259.182 591.947 249.286C591.947 241.462 590.679 239.966 579.969 235.363L573.52 232.601V221.094C573.405 201.418 570.641 187.495 565.804 183.007C564.191 181.511 563.879 181.865 561 180.484C555.5 179.238 553.366 178.745 551 178.193C549.618 179.574 549.911 179.67 553.366 186.574C557.627 195.09 561.428 209.473 562.694 221.9L563.501 229.495L556.13 227.884C552.099 227.078 546.917 226.388 544.729 226.273C542.426 226.273 536.667 224.202 530.909 221.325C521.35 216.607 520.89 216.492 509.604 216.492C496.705 216.492 487.607 219.139 480.237 224.892C478.049 226.618 473.442 228.804 470.218 229.61C466.878 230.416 460.659 232.602 456.398 234.443C445.228 239.161 439.469 238.931 425.189 233.177C418.97 230.646 413.097 228.575 412.29 228.575C411.484 228.575 408.836 226.963 406.417 225.007C398.817 219.024 390.294 216.492 377.165 216.492C365.995 216.492 365.303 216.722 355.399 221.44C348.72 224.662 343.537 226.273 340.428 226.273C337.895 226.388 332.367 227.078 328.221 227.999C316.474 230.531 317.395 232.026 318.316 212.695C319.008 196.125 319.966 181.333 322.5 176.5C325.379 171.092 341.986 143.944 402.447 154C488.947 201 406.5 137.275 447.5 141.122C476 165 493.957 181 471.5 144.5C483.247 150.829 510.467 178.655 513 179C517.146 179.575 501.733 152.452 503 149C505.765 141.061 540.503 196.007 543 183.007C549.528 174.851 552.304 180.484 565.804 180.484C588.25 184.484 584.674 114.806 582.947 112.275C581.334 109.859 585.106 109 580.5 109C577.506 109.115 587.095 105.315 584.447 105.775C579.725 106.696 581.371 102.267 581.947 99.2752C584.25 87.9986 582.947 102.275 581.947 88.2752C578.447 81.5168 572.677 85.0829 572.447 84.7375C572.447 76.5677 563.385 77.297 564.191 73.5C565.573 67.2863 549.612 69.5494 548 67.8229C546.272 66.2123 541.126 66.557 534.447 67.8229C518.669 63.3357 522.362 73.807 518.447 67.8229C522.247 66.3274 514.416 61.9547 518.447 67.8229C516.373 68.6283 529 71.7099 509.5 63.5081C505.123 61.6672 509.5 60.5743 475 60.5743C470.969 61.2652 462.3 63.9101 458.5 61.954C454.585 59.9979 463.5 67.8229 444.5 60.5743C439.433 61.15 437.051 63.4509 431.177 60.5743C427.492 58.7334 431.612 60.6894 430 60.5743C428.388 60.5743 409.977 60.6888 405.947 63.3357L411.369 61.954ZM400.312 246.179C414.132 250.667 418.393 256.765 418.509 272.184C418.624 280.354 418.163 283.001 415.975 287.488C408.374 303.022 386.724 311.768 361.042 309.812C341.349 308.201 331.215 302.677 325.802 290.48C322.347 282.54 321.886 263.554 325.111 257.686C328.105 252.162 333.863 248.365 343.306 245.833C350.678 243.877 354.708 243.647 373.134 243.877C389.027 244.223 395.936 244.798 400.312 246.179ZM543.116 246.179C556.935 250.667 561.196 256.765 561.312 272.184C561.427 280.354 560.966 283.001 558.778 287.488C551.177 303.022 529.527 311.768 503.845 309.812C484.152 308.201 474.018 302.677 468.605 290.48C465.15 282.54 464.689 263.554 467.914 257.686C470.908 252.162 476.666 248.365 486.109 245.833C493.481 243.877 497.511 243.647 515.937 243.877C531.83 244.223 538.739 244.798 543.116 246.179Z" fill="black"/>
<path fill-rule="evenodd" clip-rule="evenodd" d="M359.087 257.046C352.983 259.922 345.957 267.172 345.957 270.624C345.957 273.27 347.8 273.27 351.37 270.394C360.698 263.029 380.507 263.029 390.641 270.279C392.599 271.544 394.672 272.695 395.363 272.695C397.781 272.695 396.63 268.552 392.945 264.179C388.108 258.196 379.471 254.284 371.294 254.284C367.033 254.284 363.002 255.204 359.087 257.045V257.046Z" fill="#533824"/>
<path fill-rule="evenodd" clip-rule="evenodd" d="M492.677 257.046C486.573 259.922 479.548 267.172 479.548 270.624C479.548 273.27 481.391 273.27 484.961 270.394C494.289 263.029 514.097 263.029 524.232 270.279C526.189 271.544 528.262 272.695 528.954 272.695C531.372 272.695 530.22 268.552 526.535 264.179C521.698 258.196 513.061 254.284 504.884 254.284C500.623 254.284 496.593 255.204 492.677 257.045L492.677 257.046Z" fill="#533824"/>
<path fill-rule="evenodd" clip-rule="evenodd" d="M411.576 317.806C412.843 322.754 416.528 326.667 422.977 329.774C428.16 332.305 430.809 332.881 438.409 332.881C446.01 332.881 448.659 332.305 453.841 329.774C460.291 326.667 463.976 322.755 465.242 317.806L465.818 315.275H438.409H411L411.576 317.806Z" fill="#AF754C"/>
<path fill-rule="evenodd" clip-rule="evenodd" d="M403.877 365.275C405.374 374.826 412.63 384.607 421.613 389.209C428.177 392.662 440.269 393.352 447.179 390.706C457.544 386.678 466.527 375.862 468.139 365.275H403.877Z" fill="#ED8080"/>
<path fill-rule="evenodd" clip-rule="evenodd" d="M310 328.775C315 382.775 373.017 422.173 382 426.775C388.564 430.227 401.821 437.775 442.5 446.775C469.5 433.775 553 415.76 560.5 337.775L524.161 359.345L440.274 414.76L369.5 382.775L310 328.775Z" fill="#010101" fill-opacity="0.54"/>
<path fill-rule="evenodd" clip-rule="evenodd" d="M363.5 358C368.5 412 385.017 362.673 394 367.275C400.564 370.727 399.595 354.275 440.274 363.275C467.274 350.275 497.5 394.275 516 359.345L502.5 353.275L476 341.275H388.5L363.5 358Z" fill="#010101" fill-opacity="0.54"/>
<path d="M478.721 580.277L486.116 574.269C487.83 572.877 490.349 573.136 491.742 574.849C493.136 576.561 492.876 579.078 491.162 580.47L487.583 583.377L513.568 605.253C515.281 606.645 515.541 609.162 514.148 610.874C513.357 611.846 512.205 612.349 511.043 612.349C510.156 612.349 509.263 612.056 508.522 611.454L478.721 586.477C477.787 585.718 477.245 584.58 477.245 583.377C477.245 582.175 477.787 581.036 478.721 580.277Z" fill="#1864AB"/>
<path d="M511.56 543.568C513.683 543.585 515.391 545.318 515.374 547.44L515.044 608.538C515.027 610.66 513.291 612.366 511.168 612.349C510.63 612.345 510.12 612.23 509.656 612.027C508.291 611.43 507.341 610.061 507.354 608.476L507.685 547.379C507.702 545.257 509.437 543.551 511.56 543.568Z" fill="#1864AB"/>
<path d="M528.438 585.596L531.169 583.377L521.441 575.473C519.727 574.081 519.468 571.565 520.861 569.853C522.254 568.14 524.773 567.881 526.487 569.273L540.03 580.277C540.965 581.036 541.507 582.175 541.507 583.377C541.507 584.58 540.965 585.718 540.03 586.477L533.483 591.797C532.742 592.399 531.849 592.692 530.963 592.692C529.8 592.692 528.648 592.188 527.858 591.217C526.464 589.505 526.724 586.988 528.438 585.596Z" fill="#C83267"/>
<path fill-rule="evenodd" clip-rule="evenodd" d="M358.624 469.205C324.652 472.512 293.789 485.164 268.107 506.252C246.008 524.321 239.843 538.682 223.663 559.135C256.629 593.308 300.958 622.263 349.298 638.255C381.543 648.856 403.54 652.275 438.088 652.275C472.639 652.275 494.634 648.856 526.881 638.255C575.649 622.672 616.728 597.135 653.759 560.48C628.396 527.771 617.957 506.332 577.091 486.189C559.931 477.641 539.778 471.485 524.346 469.889L517.078 469.235L516.733 469.227L515.939 474.677C512.485 500.667 479.895 519.817 439.241 519.817C398.589 519.817 366.573 500.894 362.426 474.563C361.621 469.32 361.274 468.863 358.626 469.205H358.624Z" fill="#090E16"/>
</g>
<path fill-rule="evenodd" clip-rule="evenodd" d="M475.18 534L442.196 550.285L440 575.983L457.185 599L495.713 598.523L511 573.778L508.228 547.524L475.18 534Z" fill="#120A44"/>
<path d="M475.18 534C466.545 538.27 457.91 542.52 442.196 550.285M475.18 534C465.756 538.647 456.332 543.314 442.196 550.285M442.196 550.285C441.471 558.785 440.746 567.265 440 575.983M442.196 550.285C441.684 556.163 441.194 562.042 440 575.983M440 575.983C445.629 583.51 451.236 591.036 457.185 599M440 575.983C445.394 583.212 450.789 590.421 457.185 599M457.185 599C468.635 598.861 480.084 598.722 495.713 598.523M457.185 599C468.336 598.861 479.487 598.722 495.713 598.523M495.713 598.523C500.553 590.679 505.392 582.854 511 573.778M495.713 598.523C500.851 590.202 506.011 581.881 511 573.778M511 573.778C509.977 564.147 508.974 554.495 508.228 547.524M511 573.778C509.913 563.471 508.825 553.184 508.228 547.524M508.228 547.524C501.256 544.684 494.284 541.825 475.18 534M508.228 547.524C499.081 543.791 489.913 540.037 475.18 534" stroke="#1864AB" stroke-width="2" stroke-linecap="round"/>
<path fill-rule="evenodd" clip-rule="evenodd" d="M475.18 534L442.196 550.285L440 575.983L457.185 599L495.713 598.523L511 573.778L508.228 547.524L475.18 534Z" fill="#120A44"/>
<path d="M475.18 534C466.545 538.27 457.91 542.52 442.196 550.285M475.18 534C465.756 538.647 456.332 543.314 442.196 550.285M442.196 550.285C441.471 558.785 440.746 567.265 440 575.983M442.196 550.285C441.684 556.163 441.194 562.042 440 575.983M440 575.983C445.629 583.51 451.236 591.036 457.185 599M440 575.983C445.394 583.212 450.789 590.421 457.185 599M457.185 599C468.635 598.861 480.084 598.722 495.713 598.523M457.185 599C468.336 598.861 479.487 598.722 495.713 598.523M495.713 598.523C500.553 590.679 505.392 582.854 511 573.778M495.713 598.523C500.851 590.202 506.011 581.881 511 573.778M511 573.778C509.977 564.147 508.974 554.495 508.228 547.524M511 573.778C509.913 563.471 508.825 553.184 508.228 547.524M508.228 547.524C501.256 544.684 494.284 541.825 475.18 534M508.228 547.524C499.081 543.791 489.913 540.037 475.18 534" stroke="#1864AB" stroke-width="2" stroke-linecap="round"/>
<path d="M476 561C475.829 564.669 475.162 579.336 475 583M476 561C475.829 564.669 475.162 579.336 475 583" stroke="#1864AB" stroke-width="4" stroke-linecap="round"/>
<path d="M475.332 576.683C476.501 574.784 484.414 570.579 482.361 565.301C480.302 560.019 466.228 548.383 463 545M475.332 576.683C476.501 574.784 484.414 570.579 482.361 565.301C480.302 560.019 466.228 548.383 463 545" stroke="#1864AB" stroke-width="4" stroke-linecap="round"/>
<path d="M461 594C461.142 590.595 461.715 576.983 461.863 573.582M461 594C461.142 590.595 461.715 576.983 461.863 573.582" stroke="white" stroke-width="4" stroke-linecap="round"/>
<path d="M473.62 593.765C475.652 591.576 481.747 585.002 485.81 580.623C489.874 576.243 495.968 569.67 498 567.48M473.62 593.765C475.652 591.576 481.747 585.002 485.81 580.623C489.874 576.243 495.968 569.67 498 567.48" stroke="white" stroke-width="4" stroke-linecap="round"/>
<path d="M467.034 560.638C467.034 560.848 467.012 561.062 466.968 561.268C466.93 561.478 466.87 561.683 466.788 561.88C466.711 562.081 466.608 562.273 466.493 562.456C466.378 562.639 466.242 562.814 466.094 562.975C465.941 563.136 465.778 563.287 465.597 563.426C465.417 563.56 465.226 563.681 465.024 563.788C464.822 563.895 464.609 563.985 464.39 564.056C464.172 564.128 463.943 564.186 463.713 564.221C463.484 564.257 463.249 564.275 463.014 564.275C462.785 564.275 462.55 564.257 462.321 564.221C462.091 564.186 461.862 564.128 461.643 564.056C461.425 563.985 461.206 563.895 461.01 563.788C460.808 563.681 460.611 563.56 460.436 563.426C460.256 563.287 460.087 563.136 459.939 562.975C459.792 562.814 459.655 562.639 459.541 562.456C459.421 562.273 459.322 562.081 459.24 561.88C459.164 561.683 459.104 561.478 459.06 561.268C459.022 561.062 459 560.848 459 560.638C459 560.427 459.022 560.213 459.06 560.007C459.104 559.797 459.164 559.592 459.24 559.395C459.322 559.194 459.421 559.002 459.541 558.819C459.655 558.636 459.792 558.461 459.939 558.3C460.087 558.14 460.256 557.988 460.436 557.849C460.611 557.715 460.808 557.594 461.01 557.487C461.206 557.384 461.425 557.29 461.643 557.219C461.862 557.147 462.091 557.094 462.321 557.054C462.55 557.018 462.785 557 463.014 557C463.249 557 463.484 557.018 463.713 557.054C463.943 557.094 464.172 557.147 464.39 557.219C464.609 557.29 464.822 557.384 465.024 557.487C465.226 557.594 465.417 557.715 465.597 557.849C465.778 557.988 465.941 558.14 466.094 558.3C466.242 558.461 466.378 558.636 466.493 558.819C466.608 559.002 466.711 559.194 466.788 559.395C466.87 559.592 466.93 559.797 466.968 560.007C467.012 560.213 467.023 560.53 467.034 560.638C467.039 560.53 467.039 560.745 467.034 560.638Z" fill="#120A44"/>
<path d="M467.034 560.638C467.034 560.848 467.012 561.062 466.968 561.268C466.93 561.478 466.87 561.683 466.788 561.88C466.711 562.081 466.608 562.273 466.493 562.456C466.378 562.639 466.242 562.814 466.094 562.975C465.941 563.136 465.778 563.287 465.597 563.426C465.417 563.56 465.226 563.681 465.024 563.788C464.822 563.895 464.609 563.985 464.39 564.056C464.172 564.128 463.943 564.186 463.713 564.221C463.484 564.257 463.249 564.275 463.014 564.275C462.785 564.275 462.55 564.257 462.321 564.221C462.091 564.186 461.862 564.128 461.643 564.056C461.425 563.985 461.206 563.895 461.01 563.788C460.808 563.681 460.611 563.56 460.436 563.426C460.256 563.287 460.087 563.136 459.939 562.975C459.792 562.814 459.655 562.639 459.541 562.456C459.421 562.273 459.322 562.081 459.24 561.88C459.164 561.683 459.104 561.478 459.06 561.268C459.022 561.062 459 560.848 459 560.638C459 560.427 459.022 560.213 459.06 560.007C459.104 559.797 459.164 559.592 459.24 559.395C459.322 559.194 459.421 559.002 459.541 558.819C459.655 558.636 459.792 558.461 459.939 558.3C460.087 558.14 460.256 557.988 460.436 557.849C460.611 557.715 460.808 557.594 461.01 557.487C461.206 557.384 461.425 557.29 461.643 557.219C461.862 557.147 462.091 557.094 462.321 557.054C462.55 557.018 462.785 557 463.014 557C463.249 557 463.484 557.018 463.713 557.054C463.943 557.094 464.172 557.147 464.39 557.219C464.609 557.29 464.822 557.384 465.024 557.487C465.226 557.594 465.417 557.715 465.597 557.849C465.778 557.988 465.941 558.14 466.094 558.3C466.242 558.461 466.378 558.636 466.493 558.819C466.608 559.002 466.711 559.194 466.788 559.395C466.87 559.592 466.93 559.797 466.968 560.007C467.012 560.213 467.023 560.53 467.034 560.638ZM467.034 560.638C467.039 560.745 467.039 560.53 467.034 560.638Z" stroke="#1864AB" stroke-width="2" stroke-linecap="round"/>
<path d="M461.86 593.061C463.128 591.886 467.311 588.056 469.463 586.019C471.614 583.985 473.881 581.72 474.766 580.857M461.86 593.061C463.128 591.886 467.311 588.056 469.463 586.019C471.614 583.985 473.881 581.72 474.766 580.857" stroke="white" stroke-width="4" stroke-linecap="round"/>
<path d="M473.334 592.592C473.432 590.831 473.814 583.793 473.907 582.032M473.334 592.592C473.432 590.831 473.814 583.793 473.907 582.032" stroke="white" stroke-width="4" stroke-linecap="round"/>
<defs>
<filter id="filter0_f_21_4106" x="0.5" y="0.612762" width="854" height="817.387" filterUnits="userSpaceOnUse" color-interpolation-filters="sRGB">
<feFlood flood-opacity="0" result="BackgroundImageFix"/>
<feBlend mode="normal" in="SourceGraphic" in2="BackgroundImageFix" result="shape"/>
<feGaussianBlur stdDeviation="25" result="effect1_foregroundBlur_21_4106"/>
</filter>
<filter id="filter1_i_21_4106" x="223.663" y="59.7811" width="430.095" height="596.494" filterUnits="userSpaceOnUse" color-interpolation-filters="sRGB">
<feFlood flood-opacity="0" result="BackgroundImageFix"/>
<feBlend mode="normal" in="SourceGraphic" in2="BackgroundImageFix" result="shape"/>
<feColorMatrix in="SourceAlpha" type="matrix" values="0 0 0 0 0 0 0 0 0 0 0 0 0 0 0 0 0 0 127 0" result="hardAlpha"/>
<feOffset dy="4"/>
<feGaussianBlur stdDeviation="2"/>
<feComposite in2="hardAlpha" operator="arithmetic" k2="-1" k3="1"/>
<feColorMatrix type="matrix" values="0 0 0 0 0 0 0 0 0 0 0 0 0 0 0 0 0 0 0.25 0"/>
<feBlend mode="normal" in2="shape" result="effect1_innerShadow_21_4106"/>
</filter>
</defs>
</svg>
