<svg width="19" height="20" viewBox="0 0 19 20" fill="none" xmlns="http://www.w3.org/2000/svg">
<path d="M2.15487 14.5748C1.12852 12.6908 0.76952 10.464 1.14526 8.31242C1.521 6.16085 2.60564 4.23248 4.19556 2.88934C5.78548 1.54619 7.77134 0.880632 9.78032 1.01761C11.7893 1.1546 13.6832 2.0847 15.1066 3.6333C16.5299 5.18191 17.3848 7.24252 17.5107 9.4283C17.6366 11.6141 17.0249 13.7747 15.7904 15.5045C14.5559 17.2343 12.7835 18.4144 10.8059 18.8232C8.8284 19.232 6.7817 18.8414 5.0501 17.7248L2.18934 18.606C2.07213 18.6433 1.94786 18.6456 1.82956 18.6127C1.71125 18.5798 1.60326 18.5128 1.51691 18.4189C1.43056 18.3249 1.36903 18.2074 1.33877 18.0787C1.3085 17.95 1.31062 17.8148 1.3449 17.6873L2.15487 14.5748Z" fill="#1864AB" fill-opacity="0.5" stroke="#1864AB" stroke-opacity="0.5" stroke-linecap="round" stroke-linejoin="round"/>
<path d="M11.3489 15.231C10.4419 15.2335 9.54337 15.041 8.70495 14.6644C7.86654 14.2879 7.10476 13.7349 6.4634 13.0371C5.82204 12.3393 5.31373 11.5105 4.96767 10.5983C4.62162 9.6861 4.44465 8.70849 4.44692 7.72166C4.4492 7.02709 4.7044 6.36182 5.15662 5.87156C5.60884 5.3813 6.22121 5.10603 6.8596 5.10603C6.96493 5.10512 7.06854 5.13511 7.15952 5.19285C7.2505 5.25059 7.3255 5.33395 7.37661 5.43416L8.38477 7.34666C8.44472 7.46292 8.47549 7.5943 8.47397 7.7276C8.47246 7.8609 8.43872 7.99142 8.37615 8.10603L7.56618 9.57791C7.98105 10.5821 8.71988 11.3859 9.64281 11.8373L10.9956 10.956C11.101 10.8879 11.2209 10.8512 11.3435 10.8496C11.466 10.848 11.5867 10.8814 11.6936 10.9467L13.4514 12.0435C13.5435 12.0991 13.6201 12.1807 13.6732 12.2797C13.7263 12.3787 13.7538 12.4914 13.753 12.606C13.7507 13.2998 13.497 13.9647 13.0469 14.4562C12.5968 14.9477 11.9866 15.2261 11.3489 15.231Z" fill="#1864AB" fill-opacity="0.5" stroke="#1864AB" stroke-opacity="0.5" stroke-linecap="round" stroke-linejoin="round"/>
</svg>
